<svg xmlns="http://www.w3.org/2000/svg" width="10.13" height="11.461" viewBox="0 0 10.13 11.461"><path d="M6.255.793a4.21,4.21,0,0,0-2.592.869,3.813,3.813,0,0,0-1.372,3.1,7.13,7.13,0,0,0,1.86,4.131,16.677,16.677,0,0,0,1.816,1.93.439.439,0,0,0,.581,0,16.677,16.677,0,0,0,1.816-1.93,7.13,7.13,0,0,0,1.86-4.131,3.811,3.811,0,0,0-1.372-3.1A4.223,4.223,0,0,0,6.255.793Zm0,.883A3.385,3.385,0,0,1,8.3,2.352a2.847,2.847,0,0,1,1.039,2.41A6.482,6.482,0,0,1,7.678,8.34,16.862,16.862,0,0,1,6.258,9.889,17.378,17.378,0,0,1,4.838,8.34,6.549,6.549,0,0,1,3.172,4.762,2.85,2.85,0,0,1,4.21,2.352a3.388,3.388,0,0,1,2.045-.678Zm0,.889A2.2,2.2,0,1,0,8.462,4.772,2.212,2.212,0,0,0,6.255,2.565Zm0,.883a1.316,1.316,0,1,1-.936.387,1.319,1.319,0,0,1,.936-.387ZM4.043,9.712l-.028,0a7.747,7.747,0,0,0-2.17.455,1,1,0,0,0-.6.5.661.661,0,0,0-.008.5.791.791,0,0,0,.27.333,4.065,4.065,0,0,0,1.84.563,20.415,20.415,0,0,0,2.908.192,20.4,20.4,0,0,0,2.908-.192,4.088,4.088,0,0,0,1.845-.563.783.783,0,0,0,.27-.33.671.671,0,0,0-.01-.5,1,1,0,0,0-.6-.5A7.76,7.76,0,0,0,8.5,9.717a.441.441,0,0,0-.092.878,8.613,8.613,0,0,1,1.776.333,6.1,6.1,0,0,1-1.154.262,19.6,19.6,0,0,1-2.778.183,19.591,19.591,0,0,1-2.777-.183,6.2,6.2,0,0,1-1.158-.26A9.306,9.306,0,0,1,4.1,10.6a.443.443,0,0,0-.06-.883Z" transform="translate(-1.192 -0.793)" fill="#ffb408"/></svg>