<svg xmlns="http://www.w3.org/2000/svg" width="21.238" height="20.222" viewBox="0 0 21.238 20.222"><g transform="translate(0 -10.915)"><g transform="translate(13.613 26.198)"><path d="M295.131,339.465a2.47,2.47,0,1,0,2.467,2.472v0A2.472,2.472,0,0,0,295.131,339.465Z" transform="translate(-292.659 -339.465)" fill="#ffb408"/></g><g transform="translate(0 10.915)"><g transform="translate(0 0)"><path d="M20.466,14.371a.951.951,0,0,0-.179-.017H5.249l-.238-1.593a2.143,2.143,0,0,0-2.122-1.846H.953a.953.953,0,1,0,0,1.905H2.891a.238.238,0,0,1,.238.21L4.6,23.085A2.634,2.634,0,0,0,7.19,25.309H17.1a2.62,2.62,0,0,0,2.57-2.093l1.55-7.728A.953.953,0,0,0,20.466,14.371Z" transform="translate(0 -10.915)" fill="#ffb408"/></g></g><g transform="translate(5.189 26.2)"><path d="M116.4,341.877a2.47,2.47,0,0,0-2.476-2.362h0a2.47,2.47,0,0,0,.057,4.937h.06A2.47,2.47,0,0,0,116.4,341.877Z" transform="translate(-111.558 -339.516)" fill="#ffb408"/></g></g></svg>