<svg xmlns="http://www.w3.org/2000/svg" width="12.976" height="12.976" viewBox="0 0 12.976 12.976"><g transform="translate(0)"><path d="M9.437,0H1.918A1.92,1.92,0,0,0,0,1.918V6.294A1.92,1.92,0,0,0,1.918,8.212H2V9.379a.253.253,0,0,0,.433.179L3.78,8.212h.948a.253.253,0,1,0,0-.507H3.675a.254.254,0,0,0-.179.074l-.988.988V7.958A.253.253,0,0,0,2.254,7.7H1.918A1.412,1.412,0,0,1,.507,6.294V1.918A1.412,1.412,0,0,1,1.918.507H9.437a1.412,1.412,0,0,1,1.411,1.411V4.106a.253.253,0,1,0,.507,0V1.918A1.92,1.92,0,0,0,9.437,0Z" transform="translate(0)" fill="#ffb408"/></g><g transform="translate(6.309 6.034)"><path d="M249.169,238.1a.253.253,0,0,0-.253.253v0a.253.253,0,1,0,.507,0v0A.253.253,0,0,0,249.169,238.1Z" transform="translate(-248.916 -238.099)" fill="#ffb408"/></g><g transform="translate(5.629 5.311)"><path d="M229.438,211.539a.805.805,0,0,1-.676-1.1v-.011a.807.807,0,0,0-.806-.806h-3.535a.254.254,0,0,0-.093.017l-.415.163a.253.253,0,0,0-.253-.242h-1.318a.254.254,0,0,0-.253.253v4.461a.253.253,0,0,0,.253.253h1.318a.253.253,0,0,0,.192-.088l2.229,2.694a.254.254,0,0,0,.193.092h0a.253.253,0,0,0,.193-.089l.1-.113a1.568,1.568,0,0,0,.225-1.689l-.353-.746h1.518a.807.807,0,0,0,.806-.806v-.011a.805.805,0,0,1,.676-1.1v-.011a.8.8,0,0,1,0-1.1Zm-6.03,2.238a.256.256,0,0,0,0,.055v.185H222.6v-3.954h.811Zm5.523-2.227a.3.3,0,0,1-.3.3h-1.693a.253.253,0,1,0,0,.507h1.693a.3.3,0,0,1,.3.3v.011a.3.3,0,0,1-.3.3h-1.693a.253.253,0,1,0,0,.507h1.017a.3.3,0,0,1,.3.3v.011a.3.3,0,0,1-.3.3h-1.918a.253.253,0,0,0-.229.362l.525,1.108a1.061,1.061,0,0,1-.061,1.017l-2.359-2.851v-3.372l.555-.218h3.487a.3.3,0,0,1,.3.3v.011a.3.3,0,0,1-.3.3h-1.017a.253.253,0,1,0,0,.507h1.693a.3.3,0,0,1,.3.3Z" transform="translate(-222.09 -209.556)" fill="#ffb408"/></g><g transform="translate(1.673 3.852)"><path d="M73.755,152h-7.5a.253.253,0,1,0,0,.507h7.5a.253.253,0,1,0,0-.507Z" transform="translate(-66 -152)" fill="#ffb408"/></g><g transform="translate(1.673 2.23)"><path d="M72.4,88H66.253a.253.253,0,0,0,0,.507H72.4a.253.253,0,0,0,0-.507Z" transform="translate(-66 -88)" fill="#ffb408"/></g><g transform="translate(9.175 2.23)"><path d="M362.433,88.074a.253.253,0,1,0,.074.179A.255.255,0,0,0,362.433,88.074Z" transform="translate(-362 -88)" fill="#ffb408"/></g><g transform="translate(1.673 5.474)"><path d="M69.055,216h-2.8a.253.253,0,1,0,0,.507h2.8a.253.253,0,1,0,0-.507Z" transform="translate(-66 -216)" fill="#ffb408"/></g></svg>