<svg xmlns="http://www.w3.org/2000/svg" width="13.487" height="12.282" viewBox="0 0 13.487 12.282"><g transform="translate(0 0)"><path d="M10.464,10.956h7.931l-4.332,3.4a.579.579,0,0,1-.3.117.59.59,0,0,1-.3-.117l-3.1-2.432a.331.331,0,0,0-.111-.059,1.208,1.208,0,0,0,.225-.722A1.736,1.736,0,0,0,10.464,10.956ZM8.447,8.768a.3.3,0,0,1,.062.025,1.107,1.107,0,0,1,.292.24,3.857,3.857,0,0,1,.556.846l.011.023a2.9,2.9,0,0,1,.47,1.253.486.486,0,0,1-.3.516l-.588.339a1.29,1.29,0,0,0-.609.985,1.632,1.632,0,0,0,.185,1.011l1.452,2.5a1.649,1.649,0,0,0,.789.666,1.3,1.3,0,0,0,1.162-.033l.588-.338a.493.493,0,0,1,.6,0,2.918,2.918,0,0,1,.858,1.03l.014.023a3.876,3.876,0,0,1,.458.9,1.1,1.1,0,0,1,.063.371c-.007.078-.009.07-.029.082l-.448.257a3.428,3.428,0,0,1-3.077-.1,5.786,5.786,0,0,1-2.285-2.364l0-.006L7.444,14.89l0-.007a5.747,5.747,0,0,1-.915-3.151,3.384,3.384,0,0,1,1.451-2.7l.448-.256c.01-.006.014-.01.023-.009Zm0-.629a.668.668,0,0,0-.348.086L7.63,8.5l-.03.018a4.078,4.078,0,0,0-1.715,3.191,6.343,6.343,0,0,0,1.008,3.51l1.221,2.1,0-.006a6.374,6.374,0,0,0,2.55,2.622,4.122,4.122,0,0,0,3.636.118.243.243,0,0,0,.031-.016l.474-.272a.74.74,0,0,0,.347-.58,1.568,1.568,0,0,0-.09-.62,4.233,4.233,0,0,0-.536-1.057,3.359,3.359,0,0,0-1.075-1.249,1.226,1.226,0,0,0-1.247-.01l-.588.339a.646.646,0,0,1-.591,0,1.129,1.129,0,0,1-.483-.4l-1.452-2.5a1.123,1.123,0,0,1-.1-.617.635.635,0,0,1,.294-.508l.572-.329a.316.316,0,0,0,.121.193l3.1,2.433a1.216,1.216,0,0,0,.68.26h.037a1.215,1.215,0,0,0,.679-.26l4.264-3.35v5.534c0,.084-.1.2-.284.2H15.488a.319.319,0,1,0,0,.638H18.44a.885.885,0,0,0,.926-.833V11.151a.885.885,0,0,0-.926-.833H10.288a5.681,5.681,0,0,0-.36-.725,4.247,4.247,0,0,0-.654-.99,1.58,1.58,0,0,0-.494-.388h0A.822.822,0,0,0,8.451,8.139Z" transform="translate(-5.88 -8.138)" fill="#ffb408"/></g></svg>