<svg xmlns="http://www.w3.org/2000/svg" width="23.664" height="26.869" viewBox="0 0 23.664 26.869"><g transform="translate(0.2 0.2)"><g transform="translate(3.102 10.856)"><path d="M93.326,210A2.329,2.329,0,0,0,91,212.326v6.307a2.326,2.326,0,0,0,4.653,0v-6.307A2.329,2.329,0,0,0,93.326,210Z" transform="translate(-91 -210)" fill="#fff" stroke="#fff" stroke-width="0.4"/></g><g transform="translate(0 12.53)"><path d="M32.551,243.019a3.847,3.847,0,0,1,.066-.653A2.322,2.322,0,0,0,31,244.57v3.205a2.322,2.322,0,0,0,1.617,2.2,3.847,3.847,0,0,1-.066-.653Z" transform="translate(-31 -242.366)" fill="#fff" stroke="#fff" stroke-width="0.4"/></g><g transform="translate(9.306 10.856)"><path d="M219.53,210a2.329,2.329,0,0,0-2.326,2.326v6.307a2.329,2.329,0,0,0,2.326,2.326,2.294,2.294,0,0,0,.666-.109,2.322,2.322,0,0,1-2.217,1.66H215.51a2.326,2.326,0,1,0,0,1.551h2.469a3.882,3.882,0,0,0,3.877-3.877v-7.858A2.329,2.329,0,0,0,219.53,210Z" transform="translate(-211 -210)" fill="#fff" stroke="#fff" stroke-width="0.4"/></g><g transform="translate(21.647 12.53)"><path d="M449.722,242.366a3.855,3.855,0,0,1,.066.653v6.307a3.855,3.855,0,0,1-.066.653,2.322,2.322,0,0,0,1.617-2.2V244.57A2.322,2.322,0,0,0,449.722,242.366Z" transform="translate(-449.722 -242.366)" fill="#fff" stroke="#fff" stroke-width="0.4"/></g><g transform="translate(0)"><path d="M42.632,0A11.645,11.645,0,0,0,31,11.632v.02a3.84,3.84,0,0,1,1.586-.72,10.069,10.069,0,0,1,20.091,0,3.841,3.841,0,0,1,1.586.72v-.02A11.645,11.645,0,0,0,42.632,0Z" transform="translate(-31 0)" fill="#fff" stroke="#fff" stroke-width="0.4"/></g></g></svg>