<svg xmlns="http://www.w3.org/2000/svg" width="16.041" height="20.918" viewBox="0 0 16.041 20.918"><path d="M21.4,10.794l-.337,10.2A3.359,3.359,0,0,1,17.7,24.239H11.3a3.359,3.359,0,0,1-3.369-3.245l-.337-10.2a.843.843,0,0,1,1.685-.056l.337,10.2a1.685,1.685,0,0,0,1.685,1.62h6.4a1.685,1.685,0,0,0,1.685-1.623l.337-10.2a.843.843,0,1,1,1.685.056ZM22.519,7.4a.842.842,0,0,1-.842.842H7.32a.842.842,0,1,1,0-1.685H9.931A1.075,1.075,0,0,0,11,5.591a2.519,2.519,0,0,1,2.513-2.269h1.962a2.519,2.519,0,0,1,2.513,2.269,1.075,1.075,0,0,0,1.072.967h2.611a.842.842,0,0,1,.842.842ZM12.466,6.558h4.066a2.779,2.779,0,0,1-.215-.8A.842.842,0,0,0,15.48,5H13.518a.842.842,0,0,0-.837.758,2.78,2.78,0,0,1-.216.8Zm.848,12.761V12.147a.842.842,0,0,0-1.685,0v7.175a.842.842,0,0,0,1.685,0Zm4.055,0V12.147a.842.842,0,1,0-1.685,0v7.175a.842.842,0,0,0,1.685,0Z" transform="translate(-6.478 -3.322)" fill="#fff"/></svg>