<svg xmlns="http://www.w3.org/2000/svg" width="8.61" height="17.3" viewBox="0 0 8.61 17.3"><g transform="translate(-192.05 -125.33)"><g transform="translate(192.2 125.48)"><path d="M193.861,141.891V134.3h-1.072a.59.59,0,0,1-.589-.589v-2.4a.591.591,0,0,1,.589-.589h1.072v-1.932a3.308,3.308,0,0,1,3.308-3.308h2.751a.589.589,0,0,1,.589.589v2.4a.589.589,0,0,1-.589.589h-1.628a.34.34,0,0,0-.339.339v1.321h1.931a.59.59,0,0,1,.589.589c-.057.814-.137,1.637-.206,2.452a.591.591,0,0,1-.587.541h-1.728v7.59a.59.59,0,0,1-.589.589h-2.914a.59.59,0,0,1-.589-.589Zm.77-.179h2.553v-8.18h2.332l.173-2.044h-2.5V129.4a1.108,1.108,0,0,1,1.108-1.108h1.448V126.25h-2.57a2.538,2.538,0,0,0-2.539,2.538v2.7H192.97v2.042h1.661Z" transform="translate(-192.2 -125.48)" fill="#fff" stroke="#fff" stroke-width="0.3"/></g></g></svg>