<svg xmlns="http://www.w3.org/2000/svg" width="19" height="20.001" viewBox="0 0 19 20.001"><g transform="translate(-2.5 -1.999)"><path d="M6.644,18.782V15.715A1.418,1.418,0,0,1,8.058,14.3h2.875a1.418,1.418,0,0,1,1.423,1.413v3.058A1.232,1.232,0,0,0,13.583,20h1.96a3.46,3.46,0,0,0,2.444-1A3.41,3.41,0,0,0,19,16.579V7.866a2.472,2.472,0,0,0-.9-1.9L11.443.674A3.115,3.115,0,0,0,7.485.745L.967,5.964A2.474,2.474,0,0,0,0,7.866v8.7A3.443,3.443,0,0,0,3.456,20H5.372a1.231,1.231,0,0,0,.873-.354,1.213,1.213,0,0,0,.363-.864Z" transform="translate(2.5 2)" fill="#ffb408"/></g></svg>