<svg xmlns="http://www.w3.org/2000/svg" width="17.3" height="17.3" viewBox="0 0 17.3 17.3"><g transform="translate(0.151 0.15)"><path d="M12.4,0H4.6A4.607,4.607,0,0,0,0,4.6v7.8A4.607,4.607,0,0,0,4.6,17h7.8A4.607,4.607,0,0,0,17,12.4V4.6A4.607,4.607,0,0,0,12.4,0ZM16,12.4A3.609,3.609,0,0,1,12.4,16H4.6A3.609,3.609,0,0,1,1,12.4V4.6A3.609,3.609,0,0,1,4.6,1h7.8A3.609,3.609,0,0,1,16,4.6Zm0,0" fill="#fff" stroke="#fff" stroke-width="0.3"/><path d="M120.652,116a4.648,4.648,0,1,0,4.648,4.648A4.654,4.654,0,0,0,120.652,116Zm0,8.3a3.652,3.652,0,1,1,3.652-3.652A3.656,3.656,0,0,1,120.652,124.3Zm0,0" transform="translate(-112.153 -112.152)" fill="#fff" stroke="#fff" stroke-width="0.3"/><path d="M359.35,66.285a1.374,1.374,0,1,0,1.374,1.374A1.375,1.375,0,0,0,359.35,66.285Zm0,1.75a.377.377,0,1,1,.377-.377A.377.377,0,0,1,359.35,68.036Zm0,0" transform="translate(-346.092 -64.084)" fill="#fff" stroke="#fff" stroke-width="0.3"/></g></svg>