<svg xmlns="http://www.w3.org/2000/svg" xmlns:xlink="http://www.w3.org/1999/xlink" width="17" height="17" viewBox="0 0 17 17"><defs><clipPath id="a"><rect width="17" height="17" transform="translate(0)" fill="#fff"/></clipPath></defs><g transform="translate(0)" clip-path="url(#a)"><g transform="translate(0 0)"><path d="M8.5,0A8.5,8.5,0,1,0,17,8.5,8.5,8.5,0,0,0,8.5,0Zm6.125,4.958H12.343a13.937,13.937,0,0,0-2-3.289,7.105,7.105,0,0,1,4.28,3.29ZM11.688,8.5a7.233,7.233,0,0,1-.337,2.125H5.65A7.233,7.233,0,0,1,5.313,8.5,7.233,7.233,0,0,1,5.65,6.375h5.7A7.233,7.233,0,0,1,11.688,8.5Zm-5.47,3.542h4.565A13.893,13.893,0,0,1,8.5,15.292a13.862,13.862,0,0,1-2.282-3.25Zm0-7.083A13.893,13.893,0,0,1,8.5,1.708a13.862,13.862,0,0,1,2.282,3.25Zm.441-3.29a13.937,13.937,0,0,0-2,3.289H2.375a7.105,7.105,0,0,1,4.283-3.29ZM1.743,6.375H4.179A8.511,8.511,0,0,0,3.9,8.5a8.511,8.511,0,0,0,.283,2.125H1.743a7.078,7.078,0,0,1,0-4.25Zm.632,5.667H4.657a13.937,13.937,0,0,0,2,3.29A7.105,7.105,0,0,1,2.375,12.042Zm7.97,3.289a13.937,13.937,0,0,0,2-3.289h2.282a7.105,7.105,0,0,1-4.28,3.289Zm4.912-4.706H12.821A8.511,8.511,0,0,0,13.1,8.5a8.511,8.511,0,0,0-.283-2.125h2.435a7.078,7.078,0,0,1,0,4.25Z" fill="#fff"/></g></g></svg>