<svg xmlns="http://www.w3.org/2000/svg" width="222.063" height="84.757" viewBox="0 0 222.063 84.757">
  <g id="logo" transform="translate(-114 -53.106)">
    <g id="Group_101259" data-name="Group 101259" transform="translate(277.132 128.426)">
      <g id="Group_101258" data-name="Group 101258">
        <path id="Path_58148" data-name="Path 58148" d="M649.783,269.3c-.036.035-.036.071-.071.106l-.107.106a.742.742,0,0,1-.213.142l-.106.035h-.106a1.037,1.037,0,0,1-.319-.071l-.106-.071-.71-.71-.142-.106a.573.573,0,0,0-.319-.106.266.266,0,0,0-.177.035.621.621,0,0,0-.177.142c-.071.071-.106.142-.142.177a.385.385,0,0,0-.036.177.834.834,0,0,0,.071.284l.071.106,2.129,2.129.071.142a.648.648,0,0,1,.071.319v.142a.124.124,0,0,1-.035.071.667.667,0,0,1-.39.284l-.142.035h-5.18a2.782,2.782,0,0,1-.5-.071,1.985,1.985,0,0,1-.922-.532,2.061,2.061,0,0,1-.5-1.455,1.6,1.6,0,0,1,.5-1.242,2.051,2.051,0,0,1,.922-.461,2.782,2.782,0,0,1,.5-.071h.177a2.255,2.255,0,0,1,.319.071.6.6,0,0,1,.319.568.639.639,0,0,1-.319.568.709.709,0,0,1-.319.071h-.071a1.275,1.275,0,0,0-.39.071.5.5,0,0,0-.248.5.56.56,0,0,0,.248.532.715.715,0,0,0,.39.106h3.264l-.922-.922c-.106-.142-.177-.248-.248-.355a2.167,2.167,0,0,1-.177-.426,2.074,2.074,0,0,1-.071-.461,1.215,1.215,0,0,1,.142-.639,2.342,2.342,0,0,1,.5-.71,2.844,2.844,0,0,1,.674-.461,1.867,1.867,0,0,1,.639-.142,1.692,1.692,0,0,1,.71.142c.142.071.319.177.5.284l.177.177.71.781.071.106a.668.668,0,0,1,.071.284.846.846,0,0,1-.071.319Zm-4.683,4.116a.728.728,0,0,1,.71.71.728.728,0,0,1-.71.71.71.71,0,0,1,0-1.419Zm1.845,0a.7.7,0,0,1,.5.213.71.71,0,0,1-.5,1.206.71.71,0,0,1,0-1.419Zm4.506-.71a2.268,2.268,0,0,1-.319-.071.622.622,0,0,1-.319-.6.569.569,0,0,1,.319-.568,2.263,2.263,0,0,1,.319-.071h1.916v-1.029c0-.035-.036-.035-.036-.071a.269.269,0,0,0-.035-.142c0-.035-.035-.106-.035-.142a.6.6,0,0,0-.568-.284.533.533,0,0,0-.39.142.773.773,0,0,0-.248.319l-.177.355a1.079,1.079,0,0,1-.284.284.32.32,0,0,1-.177.035,1.037,1.037,0,0,1-.319-.071.657.657,0,0,1-.284-.248.668.668,0,0,1-.071-.284v-.106l.035-.071.036-.071a2.434,2.434,0,0,1,.106-.284c.035-.071.106-.177.142-.248l.035-.035.177-.213a2.068,2.068,0,0,1,.532-.39,1.889,1.889,0,0,1,.851-.213h.177a.386.386,0,0,1,.177.035,1.876,1.876,0,0,1,1.029.5,2.011,2.011,0,0,1,.426.639l.071.319.035.213.035.461v.639h.5v1.313l-3.654-.035Zm6.244,0v-.816a2.258,2.258,0,0,1-.071.248.838.838,0,0,1-.213.319.809.809,0,0,1-.426.213l-.213.035H655.1V271.4h1.1c.035,0,.071-.035.106-.071a.184.184,0,0,0,.071-.142v-1.668l.035-.177c0-.071.036-.106.071-.177a.6.6,0,0,1,.568-.319.657.657,0,0,1,.6.319.708.708,0,0,1,.071.319v1.845h.816v1.313h-.851Zm-.922-5.889a.727.727,0,1,1,.5-.213.6.6,0,0,1-.5.213Zm10.466,5.606a1.631,1.631,0,0,1-1.1.284h-.781l.035-.852a1.069,1.069,0,0,1-.284.6.883.883,0,0,1-.674.248h-5.961V271.4h.639l-.035-.177a2.393,2.393,0,0,1-.071-.5,1.454,1.454,0,0,1,.036-.39c.035-.106.071-.248.106-.355a1.621,1.621,0,0,1,.568-.745,2.3,2.3,0,0,1,.568-.319l.284-.071a.982.982,0,0,1,.319-.035,2.812,2.812,0,0,1,.887.177,3.284,3.284,0,0,1,.355.177l-1.206-1.6-.071-.106-.035-.106c0-.035,0-.071-.035-.071v-.071a.6.6,0,0,1,.035-.248,1.133,1.133,0,0,1,.213-.248c.071-.035.107-.071.177-.106a.45.45,0,0,1,.213-.035.793.793,0,0,1,.355.106c.036.035.106.071.142.106l3.406,4.612h.745a.271.271,0,0,0,.177-.071.266.266,0,0,0,.035-.177v-5.073a2.251,2.251,0,0,1,.071-.319.622.622,0,0,1,.6-.319.657.657,0,0,1,.6.319.709.709,0,0,1,.071.319V271.4a1.243,1.243,0,0,1-.39,1.029Zm-5.854-2.022a.584.584,0,0,0-.532-.284.55.55,0,0,0-.532.319,1.657,1.657,0,0,0-.106.319,1.536,1.536,0,0,0,.036.177c0,.035.035.106.035.142a.32.32,0,0,0,.213.213c.071.071.177.071.319.071a.568.568,0,0,0,.568-.319,2.258,2.258,0,0,0,.071-.319.511.511,0,0,0-.071-.319Zm1.242-.461.071.284a4.864,4.864,0,0,1,.071.568,1.8,1.8,0,0,1-.071.461c0,.071-.035.106-.071.177h1.135l-1.135-1.49Zm7.273,4.186a.692.692,0,0,1-1.206.071.709.709,0,0,1-.071-.319v-7.663a3.047,3.047,0,0,1,.071-.355.613.613,0,0,1,.639-.355.624.624,0,0,1,.6.355.763.763,0,0,1,.071.355v7.522a2.886,2.886,0,0,1-.106.39Zm8.976-1.419h-2.413l-.177-.035a.45.45,0,0,1-.213-.035l-.213-.035a4.286,4.286,0,0,1-.5-.177,1.419,1.419,0,0,1-.426-.355,2.485,2.485,0,0,1-.319-.6l-.071-.248-.035-.284v-.39l.035-.142-.177.106a2.59,2.59,0,0,0-.355.319,1.548,1.548,0,0,0-.142.248c-.036.106-.071.213-.106.355l-.036.142v.142a3.122,3.122,0,0,0,.106.71,1.081,1.081,0,0,0,.461.639,1.44,1.44,0,0,0,.319.177,1.126,1.126,0,0,0,.319.106,1.763,1.763,0,0,0,.568.071h.355a.45.45,0,0,1,.213.035,1.078,1.078,0,0,1,.248.177.645.645,0,0,1,.142.39.572.572,0,0,1-.106.319l-.106.106-.035.035c-.035,0-.035.035-.071.035l-.106.071-.106.035-.106.035H675.4a1.742,1.742,0,0,1-.39-.035h-.177a.268.268,0,0,1-.142-.035c-.106-.035-.248-.071-.426-.142a1.312,1.312,0,0,1-.39-.177,2.715,2.715,0,0,1-.39-.284,2.823,2.823,0,0,1-.781-.958,2.74,2.74,0,0,1-.213-.532,1.38,1.38,0,0,1-.071-.532v-.71l.035-.284c.036-.142.071-.284.107-.39a1.258,1.258,0,0,1,.142-.319,3.306,3.306,0,0,1,.993-1.1,2.866,2.866,0,0,1,1.242-.5l.6-.035h.745a1.206,1.206,0,0,1,.355.035.94.94,0,0,1,.355.106,1.859,1.859,0,0,1,.639.355,1.911,1.911,0,0,1,.461.674c.035.106.071.213.106.355l.035.142v.284a1.094,1.094,0,0,1-.035.355l-.035.213h.674l.035,1.561Zm-2.058-2.377a.674.674,0,0,0-.461-.177.622.622,0,0,0-.6.39.526.526,0,0,0-.036.248.588.588,0,0,0,.177.426.545.545,0,0,0,.461.177.747.747,0,0,0,.461-.177.545.545,0,0,0,.177-.461.478.478,0,0,0-.177-.426Zm3.9.816a.981.981,0,0,0,.284.213h2.164v1.313H678.8V271.36h.6l-.106-.248a1.392,1.392,0,0,1-.106-.5v-.177l.035-.248v-.106c0-.035,0-.035.036-.071l.106-.319a1.641,1.641,0,0,1,.461-.639,2.122,2.122,0,0,1,1.064-.5l.177-.035h.177a1.648,1.648,0,0,1,.816.213,1.726,1.726,0,0,1,.5.39l.177.213.035.035.106.177a1.029,1.029,0,0,1,.106.5,1.274,1.274,0,0,1-.071.39.493.493,0,0,1-.284.248.124.124,0,0,0-.071.035.13.13,0,0,0-.106.035l-.177.035a.437.437,0,0,1-.355-.177l-.071-.177-.106-.248-.106-.213a.527.527,0,0,0-.461-.213.667.667,0,0,0-.6.284.505.505,0,0,0-.071.213.526.526,0,0,0-.035.248v.071a.756.756,0,0,0,.248.568Zm10.821,1.561h-8.409V271.4h.852v-5.5l.035-.106a.563.563,0,0,1,.6-.39.694.694,0,0,1,.5.142.613.613,0,0,1,.177.461v2.732H688.7a2.536,2.536,0,0,1,.6.036,1.2,1.2,0,0,1,.5.177,1.484,1.484,0,0,1,.426.284,3.751,3.751,0,0,1,.355.426,3.117,3.117,0,0,1,.177.532,2.784,2.784,0,0,1,.071.5,2.148,2.148,0,0,1-.071.532l-.035.106h.852v1.384Zm-2.413-2.554-.106-.035-.177-.035h-3.512v1.277h3.512a1.606,1.606,0,0,0,.284-.071.576.576,0,0,0,.284-.568.6.6,0,0,0-.284-.568Zm8.373,2.271a1.854,1.854,0,0,1-1.1.284h-.639l-.142.319a1.835,1.835,0,0,1-.568.6,2.184,2.184,0,0,1-1.206.319,1.659,1.659,0,0,1-.993-.319,1.765,1.765,0,0,1-.532-.6l-.177-.319h-.674V271.4h.674l.142-.319a2.323,2.323,0,0,1,.532-.639,2.054,2.054,0,0,1,2.2,0,1.607,1.607,0,0,1,.532.639l.142.319h.532c.142,0,.213-.071.213-.248v-5.073a2.251,2.251,0,0,1,.071-.319.621.621,0,0,1,.6-.319.657.657,0,0,1,.6.319.709.709,0,0,1,.071.319v5.286a1.038,1.038,0,0,1-.284,1.064Zm-3.016-.71a.584.584,0,0,0-.532-.284.55.55,0,0,0-.532.319l-.036.142-.035.177a2.251,2.251,0,0,0,.071.319.55.55,0,0,0,.532.319.568.568,0,0,0,.568-.319,1.465,1.465,0,0,0,.071-.319,1.44,1.44,0,0,0-.106-.355Zm5.677,2.413a.692.692,0,0,1-1.206.071.709.709,0,0,1-.071-.319v-7.663a3.058,3.058,0,0,1,.071-.355.613.613,0,0,1,.639-.355.624.624,0,0,1,.6.355.763.763,0,0,1,.071.355v7.522a2.886,2.886,0,0,1-.106.39Z" transform="translate(-641.8 -265.4)" fill="#ffb408"/>
      </g>
    </g>
    <g id="Group_101263" data-name="Group 101263" transform="translate(114.142 63.819)">
      <g id="Group_101262" data-name="Group 101262" transform="translate(0 0)">
        <g id="Group_101260" data-name="Group 101260" transform="translate(0 1.455)">
          <path id="Path_58149" data-name="Path 58149" d="M57.328,87.4A10.782,10.782,0,0,1,68.184,98.257V110.5a10.58,10.58,0,0,1-3.158,7.7,10.754,10.754,0,0,1-.922.816l4.364,13.269h-3.8c-2.129,0-3.619-1.135-4.541-3.406l-2.164-7.486H53.212v6.173a4.724,4.724,0,0,1-4.719,4.719H46.4V87.4Zm0,27.177a3.939,3.939,0,0,0,2.874-1.206,3.882,3.882,0,0,0,1.171-2.874V98.257a4.019,4.019,0,0,0-1.135-2.874,3.938,3.938,0,0,0-2.909-1.206H53.212v20.4Z" transform="translate(-46.4 -87.4)" fill="#ffb408"/>
          <path id="Path_58150" data-name="Path 58150" d="M139.837,123.259v-2.732a4.146,4.146,0,0,0-1.1-2.838,3.872,3.872,0,0,0-3.016-1.277,4.046,4.046,0,0,0-2.767,1.135c-.035,0-.035,0-.035.035a9.6,9.6,0,0,1-6.883,2.909H124.9a10.863,10.863,0,0,1,18.555-7.7,10.474,10.474,0,0,1,3.193,7.7v25.58h-1.206A4.985,4.985,0,0,1,142,144.653a10.369,10.369,0,0,1-6.244,1.951,10.58,10.58,0,0,1-7.7-3.158,11.179,11.179,0,0,1-3.158-8.267c.035-5.428,2.767-8.976,8.231-10.608Zm0,11.885v-4.9l-5.428,1.1a4.1,4.1,0,0,0-2.732,3.8,4.774,4.774,0,0,0,1.206,3.441,4.026,4.026,0,0,0,5.748,0A4.573,4.573,0,0,0,139.837,135.145Z" transform="translate(-97.049 -101.724)" fill="#ffb408"/>
        </g>
        <g id="Group_101261" data-name="Group 101261" transform="translate(51.87)">
          <path id="Path_58151" data-name="Path 58151" d="M203.457,94.192v37.253A10.782,10.782,0,0,1,192.6,142.3v-6.776a3.939,3.939,0,0,0,2.874-1.206,3.882,3.882,0,0,0,1.171-2.874V98.911a4.786,4.786,0,0,1,4.754-4.719Zm.106-7.38a3.574,3.574,0,0,1-3.512,3.548,3.638,3.638,0,0,1-3.548-3.548,3.328,3.328,0,0,1,1.064-2.484,3.373,3.373,0,0,1,2.484-1.029,3.431,3.431,0,0,1,2.484,1.029A3.35,3.35,0,0,1,203.563,86.812Z" transform="translate(-192.6 -83.3)" fill="#ffb408"/>
        </g>
      </g>
    </g>
    <g id="Group_101266" data-name="Group 101266" transform="translate(277.097 64.315)">
      <g id="Group_101265" data-name="Group 101265" transform="translate(0 0)">
        <g id="Group_101264" data-name="Group 101264">
          <path id="Path_58152" data-name="Path 58152" d="M641.735,144.25s.39-12.95,11.779-12.95,18.875,8.267,18.875,25.155H653.124a5.076,5.076,0,0,0-3.938,5.109c0,4.328,1.951,5.109,10.608,5.109,0,0,2.342,0,2.342,1.951v1.951h1.951a3.215,3.215,0,0,1,2.767,3.158H651.918s-10.218-.781-10.218-12.169,11.389-12.169,11.389-12.169h11.424s-1.951-11-9.828-11a5.751,5.751,0,0,0-4.719,2.767,2.6,2.6,0,0,1-4.719,0c.035-.071-3.122,1.88-3.512,3.087Z" transform="translate(-641.7 -114.767)" fill="#ffb408" fill-rule="evenodd"/>
          <path id="Path_58153" data-name="Path 58153" d="M751.541,84.7v35.373s-.39,2.342-2.342,2.342h-2.342v1.561a2.991,2.991,0,0,1-3.158,2.342V90.2s.781-1.561,4.719-.781V86.261s0-1.561,3.122-1.561Z" transform="translate(-707.511 -84.7)" fill="#ffb408" fill-rule="evenodd"/>
          <path id="Path_58154" data-name="Path 58154" d="M775.059,129v21.216S773.5,165.153,757,165.153a3.18,3.18,0,0,1,2.767-1.951s-1.171-.781-1.171-3.158c0-2.342,8.657-5.109,8.657-10.608V135.28a1.947,1.947,0,0,1,1.951-1.171,3.419,3.419,0,0,1,2.342.781v-3.158A3.8,3.8,0,0,1,775.059,129Z" transform="translate(-716.093 -113.283)" fill="#ffb408" fill-rule="evenodd"/>
        </g>
        <path id="Path_58155" data-name="Path 58155" d="M690.028,204.3a4.328,4.328,0,1,1-4.328,4.328,4.346,4.346,0,0,1,4.328-4.328Z" transform="translate(-670.089 -161.867)" fill="#ffb408" fill-rule="evenodd"/>
      </g>
    </g>
    <g id="Group_101268" data-name="Group 101268" transform="translate(114 127.042)">
      <g id="Group_101267" data-name="Group 101267" transform="translate(0)">
        <path id="Path_58156" data-name="Path 58156" d="M47.064,262.4v6.386a.728.728,0,0,1-.745.745H46v-6.386a.728.728,0,0,1,.745-.745Z" transform="translate(-46 -262.081)" fill="#ffb408"/>
        <path id="Path_58157" data-name="Path 58157" d="M52.481,266.584a1.762,1.762,0,0,1,2.129.248,1.556,1.556,0,0,1,.5,1.206v3.974h-.319a.728.728,0,0,1-.745-.745v-3.229a.747.747,0,0,0-.177-.461.587.587,0,0,0-.461-.177.747.747,0,0,0-.461.177.588.588,0,0,0-.177.461v3.229a.728.728,0,0,1-.745.745H51.7V266.3h.319A.648.648,0,0,1,52.481,266.584Z" transform="translate(-49.678 -264.597)" fill="#ffb408"/>
        <path id="Path_58158" data-name="Path 58158" d="M67.477,269.467h-.319a.575.575,0,0,1-.5-.248,1.563,1.563,0,0,1-.922.248A1.7,1.7,0,0,1,64,267.728v-2.271a1.7,1.7,0,0,1,1.738-1.7,1.855,1.855,0,0,1,.639.106v-.816a.728.728,0,0,1,.745-.745h.319l.035,7.167ZM66.2,265.032a.587.587,0,0,0-.461-.177.747.747,0,0,0-.461.177.587.587,0,0,0-.177.461v2.271a.747.747,0,0,0,.177.461.545.545,0,0,0,.461.177.747.747,0,0,0,.461-.177.587.587,0,0,0,.177-.461v-2.271A.674.674,0,0,0,66.2,265.032Z" transform="translate(-57.614 -262.016)" fill="#ffb408"/>
        <path id="Path_58159" data-name="Path 58159" d="M77.435,262.068a.61.61,0,1,1-.177-.39A.416.416,0,0,1,77.435,262.068Zm0,1.171v4.967a.727.727,0,0,1-.745.745h-.319v-4.967a.728.728,0,0,1,.745-.745Z" transform="translate(-65.55 -261.5)" fill="#ffb408"/>
        <path id="Path_58160" data-name="Path 58160" d="M84.413,268.064v-.426a.747.747,0,0,0-.177-.461.644.644,0,0,0-.5-.213.747.747,0,0,0-.461.177h0a1.475,1.475,0,0,1-1.1.461H82a1.7,1.7,0,0,1,1.738-1.7,1.69,1.69,0,0,1,1.206.5,1.556,1.556,0,0,1,.5,1.206v4.08h-.177a.722.722,0,0,1-.532-.213,1.66,1.66,0,0,1-.993.319,1.773,1.773,0,0,1-1.242-.5,1.883,1.883,0,0,1-.5-1.313,1.7,1.7,0,0,1,1.313-1.7Zm0,1.916V269.2l-.851.177a.671.671,0,0,0-.426.6.734.734,0,0,0,.177.532.674.674,0,0,0,.461.177.747.747,0,0,0,.461-.177A.61.61,0,0,0,84.413,269.98Z" transform="translate(-69.228 -264.339)" fill="#ffb408"/>
        <path id="Path_58161" data-name="Path 58161" d="M95.381,266.584a1.762,1.762,0,0,1,2.129.248,1.556,1.556,0,0,1,.5,1.206v3.974h-.319a.728.728,0,0,1-.745-.745v-3.229a.747.747,0,0,0-.177-.461.587.587,0,0,0-.461-.177.747.747,0,0,0-.461.177.588.588,0,0,0-.177.461v3.229a.728.728,0,0,1-.745.745H94.6V266.3h.319A.725.725,0,0,1,95.381,266.584Z" transform="translate(-77.357 -264.597)" fill="#ffb408"/>
        <path id="Path_58162" data-name="Path 58162" d="M115.168,262.4a1.7,1.7,0,0,1,1.738,1.738v1.951a1.631,1.631,0,0,1-.5,1.206c-.035.035-.106.071-.142.142l.71,2.129h-.6a.743.743,0,0,1-.71-.532l-.355-1.206h-.745v.993a.728.728,0,0,1-.745.745H113.5V262.4Zm0,4.328a.747.747,0,0,0,.461-.177.587.587,0,0,0,.177-.461v-1.951a.747.747,0,0,0-.177-.461.588.588,0,0,0-.461-.177h-.639v3.264h.639Z" transform="translate(-89.552 -262.081)" fill="#ffb408"/>
        <path id="Path_58163" data-name="Path 58163" d="M126.8,269.341v.71a.747.747,0,0,0,.177.461.625.625,0,0,0,.461.213.747.747,0,0,0,.461-.177c.035-.035.071-.071.071-.106a.752.752,0,0,1,.639-.355h.532a1.773,1.773,0,0,1-.5,1.242,1.713,1.713,0,0,1-2.413,0,1.742,1.742,0,0,1-.532-1.277v-2.377a1.863,1.863,0,0,1,.532-1.277,1.752,1.752,0,0,1,1.206-.5,1.7,1.7,0,0,1,1.7,1.738v1.668H126.8Zm1.313-1.7a.747.747,0,0,0-.177-.461.587.587,0,0,0-.461-.177.747.747,0,0,0-.461.177.587.587,0,0,0-.177.461v.6h1.313l-.035-.6Z" transform="translate(-97.423 -264.339)" fill="#ffb408"/>
        <path id="Path_58164" data-name="Path 58164" d="M141.706,270.616a1.424,1.424,0,0,1-.5,1.135,1.791,1.791,0,0,1-1.206.426,1.689,1.689,0,0,1-1.206-.5,1.632,1.632,0,0,1-.5-1.242h.639a.625.625,0,0,1,.532.319c.035.035.071.106.106.142a.587.587,0,0,0,.461.177.982.982,0,0,0,.461-.106c.142-.071.177-.177.177-.355,0-.248-.39-.568-1.171-.922a1.739,1.739,0,0,1-1.206-1.561,1.5,1.5,0,0,1,.5-1.171A1.819,1.819,0,0,1,140,266.5a1.631,1.631,0,0,1,1.206.5,1.556,1.556,0,0,1,.5,1.206h-.568a.752.752,0,0,1-.639-.355l-.106-.106a.618.618,0,0,0-.5-.177.761.761,0,0,0-.426.142.478.478,0,0,0-.177.426h0c0,.319.39.639,1.206.958A1.559,1.559,0,0,1,141.706,270.616Z" transform="translate(-105.553 -264.726)" fill="#ffb408"/>
        <path id="Path_58165" data-name="Path 58165" d="M151.074,263.819V262.4h.319a.728.728,0,0,1,.745.745v.674h.639v1.1h-.639v2.874a.682.682,0,0,0,.142.426.624.624,0,0,0,.177.142.7.7,0,0,1,.319.6v.568a1.7,1.7,0,0,1-1.738-1.738v-2.909H150.4v-1.1l.674.035Z" transform="translate(-113.36 -262.081)" fill="#ffb408"/>
        <path id="Path_58166" data-name="Path 58166" d="M162.113,268.064v-.426a.747.747,0,0,0-.177-.461.644.644,0,0,0-.5-.213.747.747,0,0,0-.461.177h0a1.475,1.475,0,0,1-1.1.461H159.7a1.7,1.7,0,0,1,1.738-1.7,1.689,1.689,0,0,1,1.206.5,1.556,1.556,0,0,1,.5,1.206v4.08H163a.722.722,0,0,1-.532-.213,1.66,1.66,0,0,1-.993.319,1.773,1.773,0,0,1-1.242-.5,1.883,1.883,0,0,1-.5-1.313,1.7,1.7,0,0,1,1.313-1.7Zm0,1.916V269.2l-.851.177a.671.671,0,0,0-.426.6.734.734,0,0,0,.177.532.674.674,0,0,0,.461.177.747.747,0,0,0,.461-.177A.734.734,0,0,0,162.113,269.98Z" transform="translate(-119.36 -264.339)" fill="#ffb408"/>
        <path id="Path_58167" data-name="Path 58167" d="M174.761,271.735a1.563,1.563,0,0,1-.922.248,1.69,1.69,0,0,1-1.206-.5,1.742,1.742,0,0,1-.532-1.277v-3.974h.319a.728.728,0,0,1,.745.745v3.229a.747.747,0,0,0,.177.461.545.545,0,0,0,.461.177.572.572,0,0,0,.461-.213.747.747,0,0,0,.177-.461v-3.229a.727.727,0,0,1,.745-.745h.319v5.712h-.355C175.045,271.983,174.9,271.912,174.761,271.735Z" transform="translate(-127.361 -264.533)" fill="#ffb408"/>
        <path id="Path_58168" data-name="Path 58168" d="M185.664,268.138v3.229a.728.728,0,0,1-.745.745H184.6V266.4h.319a.575.575,0,0,1,.5.248,1.638,1.638,0,0,1,.922-.248h.213v1.1h-.213a.747.747,0,0,0-.461.177A.572.572,0,0,0,185.664,268.138Z" transform="translate(-135.426 -264.662)" fill="#ffb408"/>
        <path id="Path_58169" data-name="Path 58169" d="M194.913,268.064v-.426a.747.747,0,0,0-.177-.461.644.644,0,0,0-.5-.213.747.747,0,0,0-.461.177h0a1.475,1.475,0,0,1-1.1.461H192.5a1.7,1.7,0,0,1,1.738-1.7,1.689,1.689,0,0,1,1.206.5,1.556,1.556,0,0,1,.5,1.206v4.08h-.177a.722.722,0,0,1-.532-.213,1.66,1.66,0,0,1-.993.319,1.773,1.773,0,0,1-1.242-.5,1.883,1.883,0,0,1-.5-1.313,1.7,1.7,0,0,1,1.313-1.7Zm0,1.916V269.2l-.851.177a.671.671,0,0,0-.426.6.734.734,0,0,0,.177.532.674.674,0,0,0,.461.177.747.747,0,0,0,.461-.177A.734.734,0,0,0,194.913,269.98Z" transform="translate(-140.523 -264.339)" fill="#ffb408"/>
        <path id="Path_58170" data-name="Path 58170" d="M205.816,266.584a1.762,1.762,0,0,1,2.129.248,1.556,1.556,0,0,1,.5,1.206v3.974h-.319a.728.728,0,0,1-.745-.745v-3.229a.747.747,0,0,0-.177-.461.587.587,0,0,0-.461-.177.747.747,0,0,0-.461.177.588.588,0,0,0-.177.461v3.229a.728.728,0,0,1-.745.745H205V266.3h.319A.718.718,0,0,1,205.816,266.584Z" transform="translate(-148.588 -264.597)" fill="#ffb408"/>
        <path id="Path_58171" data-name="Path 58171" d="M217.874,263.819V262.4h.319a.728.728,0,0,1,.745.745v.674h.639v1.1h-.639v2.874a.682.682,0,0,0,.142.426.625.625,0,0,0,.177.142.7.7,0,0,1,.319.6v.568a1.7,1.7,0,0,1-1.738-1.738v-2.909H217.2v-1.1l.674.035Z" transform="translate(-156.46 -262.081)" fill="#ffb408"/>
      </g>
    </g>
    <path id="Path_58172" data-name="Path 58172" d="M398.45,85.185c.248.071.39.071.426.142,3.69,3.087,6.422,6.776,7.451,11.566.071.319,0,.816.355.922.39.142.674-.284.958-.532,1.277-1.135,1.419-2.661,1.348-4.222-.071-1.313-.213-2.625-.355-3.974-.532-5.783,1.419-10.75,4.932-15.256a46,46,0,0,1,4.187-4.541.992.992,0,0,1,.639-.39c-.248,1.135-.532,2.271-.745,3.37a17.019,17.019,0,0,0,1.49,9.9c.852,1.88,1.774,3.725,2.7,5.535,2.271,4.364,4.045,8.905,4.187,13.908a8.5,8.5,0,0,0,.177,1.171c3.016-3.832,5.819-7.451,6.6-12.276.213.674.461,1.348.639,2.022a58.768,58.768,0,0,1,2.342,19.23c-.319,5.251-1.6,10.182-4.967,14.4a19.288,19.288,0,0,1-8.444,5.96c-.852.319-1.135.035-1.171-.781-.071-3.974-.177-7.947-.248-11.921a2.086,2.086,0,0,1,1.029-1.951,2.632,2.632,0,0,0,1.277-2.271,76.046,76.046,0,0,0-.816-11.353c-.035-.142-.035-.355-.426-.426-.142,3.264.035,6.493-.355,9.721-.674-3.193-.319-6.493-.71-9.686h-.39c-.106,3.229-.213,6.457-.355,9.828-.639-.39-.5-.851-.5-1.206-.035-2.554-.071-5.109-.106-7.628,0-.355.106-.781-.319-1.029-.426.213-.248.6-.284.922-.071,2.59-.142,5.144-.213,7.734v.426c-.035.248.071.674-.355.6-.319-.035-.213-.39-.213-.6-.035-2.2-.035-4.4-.071-6.6a8.064,8.064,0,0,0-.142-2.448c-.426,0-.39.319-.39.532q-.585,5.056-.852,10.112a3.643,3.643,0,0,0,1.6,3.619,1.7,1.7,0,0,1,.745,1.632c-.106,4.364-.177,8.728-.284,13.092a.868.868,0,0,1-.71.993,19.55,19.55,0,0,1-5.925.355c-.781-.071-1.171-.39-1.171-1.242-.106-4.257-.213-8.515-.355-12.772a2.63,2.63,0,0,0-.035-.745,2.182,2.182,0,0,1,1.064-2.377c2.271-1.738,2.8-4.257,2.271-6.954a10.49,10.49,0,0,0-2.377-5.073,2.494,2.494,0,0,0-3.8-.213,9.625,9.625,0,0,0-2.2,9.863,5.38,5.38,0,0,0,2.235,2.7,1,1,0,0,1,.568,1.1c-.142,4.4-.213,8.8-.319,13.2-.035,1.419-.177,1.526-1.419.852a18.688,18.688,0,0,1-8.373-10.112,21.632,21.632,0,0,1-.887-13.056,77.07,77.07,0,0,0,2.342-16.32A16.083,16.083,0,0,0,398.45,85.185Z" transform="translate(-182.448 -10.19)" fill="#ffb408"/>
    <path id="Path_58173" data-name="Path 58173" d="M351.765,155.015a31.4,31.4,0,0,0,7.876,7.273,27.8,27.8,0,0,0,13.766,4.08c8.267.319,15.895-2.129,23.239-5.606.248-.106.5-.248.745-.355a.45.45,0,0,1,.213-.035c.106.248-.142.355-.248.461-7.876,7.592-17.207,11.85-28.277,11.531-11.921-.355-21.713-5.357-29.377-14.475a41.111,41.111,0,0,1-9.331-22.139c-.035-.355,0-.71-.035-1.029.071-1.951-.035-3.938-.035-5.89a12.974,12.974,0,0,0,.035-2.874,3.182,3.182,0,0,1,.177-1.526c.5-.6.284-1.384.39-2.058.39-2.306.922-4.612,1.49-6.883.142-.532.568-.674.922-.887,1.561-.852,3.193-1.526,4.719-2.448,1.809-.213,2.235.106,2.164,1.916a54.091,54.091,0,0,0,.248,5.783c.887-1.135.816-2.377.958-3.583a9.1,9.1,0,0,1,2.342-3.761c.532-.426,1.064-.887,1.774-.639a1.806,1.806,0,0,1,1.171,1.6c.106.816.248,1.668.426,2.484a10.807,10.807,0,0,0,1.561,3.725,1.708,1.708,0,0,1,0,1.951,26.22,26.22,0,0,0-2.7,6.883,34.794,34.794,0,0,0-.639,8.586,33.8,33.8,0,0,0,4.257,14.795A10.248,10.248,0,0,0,351.765,155.015Z" transform="translate(-139.559 -37.872)" fill="#df040e"/>
    <path id="Path_58174" data-name="Path 58174" d="M346.9,78.649c-.248,1.455-.355,2.98-1.348,4.222-.177.248-.319.674-.674.568-.426-.106-.319-.6-.284-.887.319-2.2-.248-4.364-.035-6.564.106-1.171-.284-1.384-1.455-1.1-.177-.142-.39-.071-.568-.142-1.171.142-2.058.922-3.122,1.419-.461.213-.958.851-1.455.355s.142-.958.355-1.384c.39-.781.816-1.526,1.277-2.271a6.765,6.765,0,0,1,3.512-2.484,2.9,2.9,0,0,0,.674-.319c.674-.319,1.632.106,2.058-.816a37.8,37.8,0,0,0,2.164-3.9,15.019,15.019,0,0,0,1.384-2.448v-.426a23.666,23.666,0,0,1,7.06-7.7A10.29,10.29,0,0,1,360.6,53.14a2.437,2.437,0,0,1,1.419.177c.461.213.922.426.958.993a1.472,1.472,0,0,1-.781,1.384,5.463,5.463,0,0,1-1.242.532,13.547,13.547,0,0,0-6.528,5.322,55.174,55.174,0,0,0-4.009,7.912c-.248.6.071.674.461.922a9.758,9.758,0,0,1,4.186,10.147c-.248-.284-.213-.639-.319-.958a11.213,11.213,0,0,1,.035-1.916,7.739,7.739,0,0,0,.142,2.519,2.2,2.2,0,0,1-.284,1.419c-.816.532-1.277-.071-1.6-.639a11.676,11.676,0,0,1-1.419-4.861,2.855,2.855,0,0,0-.674-1.809,1.213,1.213,0,0,0-1.419-.355A4.9,4.9,0,0,0,346.8,77.8C346.834,78.188,346.727,78.436,346.9,78.649Z" transform="translate(-144.385)" fill="#0d4f05"/>
    <path id="Path_58175" data-name="Path 58175" d="M371.152,117.284c.071.284.142.6.213.887-.035,1.277-.852,2.235-1.419,3.3-4.364,8.018-4.151,16.285-1.455,24.693a33.329,33.329,0,0,0,4.364,8.515c-.5.177-.6-.248-.781-.532a34.158,34.158,0,0,1-5.783-18.059,27.471,27.471,0,0,1,2.732-13.659c.213-.39.426-.781.639-1.206a1.414,1.414,0,0,0-.071-1.49,12.73,12.73,0,0,1-2.022-6.067c-.071-.71-.213-1.455-.958-1.7-.745-.284-1.206.355-1.7.781a5.427,5.427,0,0,0-1.7,3.477l-.213-.639c-.106-1.632,1.632-3.974,3.193-4.222.922-.177,1.774.71,1.845,1.88a13.527,13.527,0,0,0,1.384,5.144c.248.5.5,1.277,1.384.781a2.27,2.27,0,0,0,.355-1.348A.356.356,0,0,1,371.152,117.284Z" transform="translate(-160.649 -37.57)" fill="#181818"/>
    <path id="Path_58176" data-name="Path 58176" d="M337.8,107.212l.426.213a31.27,31.27,0,0,0-5.286,2.484c-.5.248-.568.851-.674,1.348-.674,2.661-.958,4.932-1.384,7.273-.106.568-.284,1.49-.6,2.625a4.776,4.776,0,0,1,0-1.6c.035-.177.071-.319.106-.461.568-3.69,1.064-6.422,1.242-7.1.248-.887.248-.922.248-.922.071-.355.674-.922-.213-1.171-.177-.035-.035-.248.035-.319,1.206-1.384,1.809-3.122,2.909-4.577a4.746,4.746,0,0,1,1.49-1.419c.177-.142.248,0,.319.142a16.642,16.642,0,0,0-3.016,4.328c-.142.284-.568.6-.248.922s.639-.106.922-.248c.851-.426,1.6-.958,2.448-1.384A2.242,2.242,0,0,1,337.8,107.212Z" transform="translate(-139.501 -32.537)" fill="#181818"/>
    <path id="Path_58177" data-name="Path 58177" d="M347.148,88.5a1.544,1.544,0,0,0-.248-.213,5.073,5.073,0,0,1,3.016-1.242,2.356,2.356,0,0,0,2.164-1.668,30,30,0,0,1,3.229-5.677l.213.213c.035.674-.461,1.135-.781,1.632-1.064,1.632-1.738,3.441-2.8,5.038-.461.887-1.384.532-2.093.816A25.277,25.277,0,0,1,347.148,88.5Z" transform="translate(-150.269 -17.158)" fill="#1d1d1d"/>
    <path id="Path_58178" data-name="Path 58178" d="M330.354,148c-.035,1.029-.035,1.845-.071,2.448-.035,1.916,0,5.748,0,6.564a2.253,2.253,0,0,1-.177,1.1,29.21,29.21,0,0,1-.213-3.619A39.281,39.281,0,0,1,330.354,148Z" transform="translate(-139.294 -61.226)" fill="#181818"/>
    <path id="Path_58179" data-name="Path 58179" d="M370.4,118.866c-.568.781-.958.248-1.242-.213a11.585,11.585,0,0,1-1.455-4.328,18.8,18.8,0,0,0-.355-1.951c-.355-1.206-1.171-1.526-2.235-.851a5.616,5.616,0,0,0-2.448,3.725,1.659,1.659,0,0,1,.106-1.668,8.177,8.177,0,0,1,1.632-2.022,1.984,1.984,0,0,1,2.306-.5,2.1,2.1,0,0,1,1.171,1.951,15.359,15.359,0,0,0,1.171,4.719A1.507,1.507,0,0,0,370.4,118.866Z" transform="translate(-160.326 -37.272)" fill="#306613"/>
    <path id="Path_58180" data-name="Path 58180" d="M341.113,102.564a6.774,6.774,0,0,1,2.732-1.064.254.254,0,0,1-.177.319,6.49,6.49,0,0,0-4.719,4.045,17.358,17.358,0,0,1-.958,1.632c1.029-.071,1.632-.781,2.377-1.135.71-.355,1.348-.958,2.235-.5a24.451,24.451,0,0,0-4.116,1.987c-.248.106-.568.461-.852.142-.213-.213,0-.532.142-.781C338.7,105.58,339.41,103.735,341.113,102.564Z" transform="translate(-144.234 -31.224)" fill="#306613"/>
    <path id="Path_58181" data-name="Path 58181" d="M361.1,87.006a45.12,45.12,0,0,1,3.583-6.706c.568.39,0,.71-.106.922-.887,1.384-1.6,2.838-2.413,4.222C361.845,85.977,361.916,86.793,361.1,87.006Z" transform="translate(-159.431 -17.546)" fill="#306613"/>
    <path id="Path_58182" data-name="Path 58182" d="M385.48,124.293c-.035.177-.035.355-.071.532a3.726,3.726,0,0,1,.071-2.625Z" transform="translate(-174.977 -44.58)" fill="#306613"/>
  </g>
</svg>
