<svg xmlns="http://www.w3.org/2000/svg" xmlns:xlink="http://www.w3.org/1999/xlink" width="17" height="17" viewBox="0 0 17 17"><defs><clipPath id="a"><rect width="17" height="17" transform="translate(0)" fill="#fff"/></clipPath></defs><g transform="translate(0)" clip-path="url(#a)"><g transform="translate(0.797 0)"><path d="M16.509,9.677,15.163,4.836a6.6,6.6,0,0,0-12.8.336L1.317,9.857a3.541,3.541,0,0,0,3.457,4.31h.789a3.541,3.541,0,0,0,6.941,0H13.1a3.541,3.541,0,0,0,3.412-4.489ZM9.033,15.583a2.125,2.125,0,0,1-1.994-1.417h3.989a2.125,2.125,0,0,1-1.994,1.417Zm5.755-3.672a2.108,2.108,0,0,1-1.692.839H4.774A2.125,2.125,0,0,1,2.7,10.164L3.741,5.478A5.185,5.185,0,0,1,13.8,5.215l1.346,4.842a2.108,2.108,0,0,1-.356,1.854Z" transform="translate(-1.232 -0.003)" fill="#fff"/></g></g></svg>