<svg xmlns="http://www.w3.org/2000/svg" width="231.864" height="283.953" viewBox="0 0 231.864 283.953">
  <g id="on_boarding1" transform="translate(-68.577 -25.29)">
    <g id="Group_101231" data-name="Group 101231" transform="translate(68.577 25.29)">
      <g id="Group_101096" data-name="Group 101096" transform="translate(0 24.933)">
        <circle id="Ellipse_1" data-name="Ellipse 1" cx="115.932" cy="115.932" r="115.932" fill="#fff4da"/>
      </g>
      <g id="Group_101097" data-name="Group 101097" transform="translate(65.504 274.686)">
        <path id="Path_58046" data-name="Path 58046" d="M194.1,454.271a9.491,9.491,0,0,0-8.039-2.943c-2.955.242-5.317,1.561-7.907,3.006-2.255,1.258-3.031,3.306-5.73,4.243l-2.259.661a13.615,13.615,0,0,0,1.747.773c6.118.835,12.327.541,18.494.245,1.7-.081,3.686-.334,4.516-1.816C195.658,457.124,195.069,455.426,194.1,454.271Z" transform="translate(-170.165 -451.291)" fill="#172f35"/>
      </g>
      <g id="Group_101106" data-name="Group 101106" transform="translate(136.99)">
        <g id="Group_101104" data-name="Group 101104">
          <g id="Group_101098" data-name="Group 101098">
            <circle id="Ellipse_2" data-name="Ellipse 2" cx="31.402" cy="31.402" r="31.402" transform="translate(0 61.194) rotate(-76.994)" fill="#ffb408"/>
          </g>
          <g id="Group_101099" data-name="Group 101099" transform="translate(3.221 3.221)">
            <circle id="Ellipse_3" data-name="Ellipse 3" cx="28.537" cy="28.537" r="28.537" transform="translate(0 55.477) rotate(-76.412)" fill="#f8f4d9"/>
          </g>
          <g id="Group_101100" data-name="Group 101100" transform="translate(9.149 10.578)">
            <path id="Path_58047" data-name="Path 58047" d="M350.653,78.261a28.515,28.515,0,0,0,.942-3.306H348.8V55.137a28.6,28.6,0,0,0-3.306-4.806V74.955H306.323V62.392h34.051V45.6a28.546,28.546,0,0,0-3.306-2.054V59.087H314.753V41.695a28.3,28.3,0,0,0-3.306,1.325V59.087h-8.43V69.666h-7.8a28.744,28.744,0,0,0,.286,3.305h7.511V88.395a28.668,28.668,0,0,0,3.306,2.989V78.261Z" transform="translate(-295.22 -41.695)" fill="#ffc088"/>
          </g>
          <g id="Group_101103" data-name="Group 101103" transform="translate(25.518 14.6)">
            <g id="Group_101101" data-name="Group 101101" transform="translate(0 20.043)">
              <path id="Path_58048" data-name="Path 58048" d="M345.051,91.953,332.828,79.017,320.606,91.953h3.735v12.63h16.975V91.953Z" transform="translate(-320.606 -79.017)" fill="#0c4e5f"/>
            </g>
            <g id="Group_101102" data-name="Group 101102" transform="translate(6.283)">
              <path id="Path_58049" data-name="Path 58049" d="M342.009,53.762c0,3.219-5.829,8.807-5.829,8.807s-5.83-5.588-5.83-8.807a5.829,5.829,0,0,1,11.659,0Z" transform="translate(-330.35 -47.933)" fill="#ffb408"/>
            </g>
          </g>
        </g>
        <g id="Group_101105" data-name="Group 101105" transform="translate(34.908 17.445)">
          <path id="Path_58050" data-name="Path 58050" d="M337.923,57.856a2.755,2.755,0,1,0-2.755-2.755A2.755,2.755,0,0,0,337.923,57.856Z" transform="translate(-335.168 -52.346)" fill="#ffc088"/>
        </g>
      </g>
      <g id="Group_101230" data-name="Group 101230" transform="translate(36.963 31.286)">
        <g id="Group_101107" data-name="Group 101107" transform="translate(15.79 42.156)">
          <path id="Path_58051" data-name="Path 58051" d="M196.853,143.57c.7-.476,1.41-1.2,1.3-2.037-.143-1.056-1.414-1.491-2.466-1.666a62.7,62.7,0,0,0-21.613.61,187.693,187.693,0,0,0-20.989,5.581c-1.19.366-2.605,1-2.688,2.242a2.08,2.08,0,0,0,1.09,1.817,5.433,5.433,0,0,0,2.128.607,54.681,54.681,0,0,0,13.324-.273,170.821,170.821,0,0,0,23.964-4.525A19.17,19.17,0,0,0,196.853,143.57Z" transform="translate(-150.39 -139.189)" fill="#172f35"/>
        </g>
        <g id="Group_101120" data-name="Group 101120" transform="translate(96.284 36.553)">
          <g id="Group_101113" data-name="Group 101113" transform="translate(0 15.763)">
            <g id="Group_101112" data-name="Group 101112">
              <g id="Group_101108" data-name="Group 101108">
                <path id="Path_58052" data-name="Path 58052" d="M310.195,185.633c-.362-5.912-1.134-11.883-.141-17.722l-11-1.2q-1.221,5.8-2.906,11.485c-.271-.555-.535-1.114-.78-1.682-1.5-3.475-2.444-7.16-3.8-10.693s-3.182-7-6.062-9.453c-1.057-.9-2.432-1.687-3.775-1.332a4.263,4.263,0,0,0-2.09,1.568,18.889,18.889,0,0,0-3.244,6.673,23.089,23.089,0,0,0-.687,11.79c1.785,7.48,8.333,12.745,12.215,19.383,1.06,1.814,2.122,3.161,3.12,5.009,1.763,3.416,1.581,4.1,2.535,5.62,1.816,2.9,6.246,3.708,9.587,2.975,3.045-.668,3.387-2.187,4.733-5C310.459,197.712,310.558,191.544,310.195,185.633Z" transform="translate(-275.224 -154.946)" fill="#a6bebd"/>
              </g>
              <g id="Group_101109" data-name="Group 101109" transform="translate(10.73 14.096)">
                <path id="Path_58053" data-name="Path 58053" d="M307.631,177.23a.331.331,0,0,0-.634-.186,110.953,110.953,0,0,0-4.37,27.133,15.259,15.259,0,0,0,.633,5.93c.084.222.178.444.272.665a4.635,4.635,0,0,1,.537,2.055,1.556,1.556,0,0,1-.786,1.2.831.831,0,0,1-.438.1,3.77,3.77,0,0,0,.375-1.381,1.747,1.747,0,0,0-.948-1.7,2.3,2.3,0,0,0-.66-.145,2.736,2.736,0,0,1-.357-.055c-.954-.242-1.284-1.531-1.518-2.72-.932-4.74-3.363-8.935-5.715-12.992l-1.981-3.418a7.8,7.8,0,0,1-.111.855.485.485,0,0,1-.064.161l1.584,2.734c2.325,4.011,4.728,8.157,5.639,12.788.21,1.072.564,2.867,2,3.233a3.271,3.271,0,0,0,.444.072,1.78,1.78,0,0,1,.477.1,1.1,1.1,0,0,1,.545,1.064,3.943,3.943,0,0,1-.464,1.458.331.331,0,0,0,.128.422,1.286,1.286,0,0,0,.671.19,1.5,1.5,0,0,0,.7-.181,2.225,2.225,0,0,0,1.139-1.745,5.187,5.187,0,0,0-.588-2.355c-.091-.213-.181-.427-.262-.64a14.692,14.692,0,0,1-.591-5.674A110.263,110.263,0,0,1,307.631,177.23Z" transform="translate(-291.864 -176.806)" fill="#e8e8e8"/>
              </g>
              <g id="Group_101110" data-name="Group 101110" transform="translate(8.267 9)">
                <path id="Path_58054" data-name="Path 58054" d="M288.045,197.295a111.011,111.011,0,0,0,1.882-28.392,47.563,47.563,0,0,1,3.08,11.532A24.012,24.012,0,0,1,288.045,197.295Z" transform="translate(-288.045 -168.903)" fill="#172f35"/>
              </g>
              <g id="Group_101111" data-name="Group 101111" transform="translate(23.579 7.942)">
                <path id="Path_58055" data-name="Path 58055" d="M312.75,175.442a6.89,6.89,0,0,0,3.51,1.182,9.166,9.166,0,0,0,4.471-1.056A3.539,3.539,0,0,0,322.7,173.7a4.017,4.017,0,0,0-.017-1.9q-.249-1.465-.5-2.93a1.953,1.953,0,0,0-.333-.937,1.849,1.849,0,0,0-1.221-.516,16.364,16.364,0,0,0-5.472.162,3.831,3.831,0,0,0-2.88,1.733,4.253,4.253,0,0,0-.3,1.569l-.17,2.6a2.471,2.471,0,0,0,.063.959A2.114,2.114,0,0,0,312.75,175.442Z" transform="translate(-311.792 -167.263)" fill="#172f35"/>
              </g>
            </g>
          </g>
          <g id="Group_101119" data-name="Group 101119" transform="translate(16.301)">
            <g id="Group_101114" data-name="Group 101114" transform="translate(11.233 6.074)">
              <path id="Path_58056" data-name="Path 58056" d="M318.612,146.974a.751.751,0,0,0,.53-.05l3.39-1.2a31.332,31.332,0,0,0-4.605-5.808q.182,3.171.363,6.343C318.306,146.537,318.358,146.868,318.612,146.974Z" transform="translate(-317.927 -139.919)" fill="#ffc088"/>
            </g>
            <g id="Group_101117" data-name="Group 101117">
              <g id="Group_101115" data-name="Group 101115">
                <rect id="Rectangle_6793" data-name="Rectangle 6793" width="11.825" height="21.693" rx="1.615" fill="#a6bebd"/>
              </g>
              <g id="Group_101116" data-name="Group 101116" transform="translate(0.72 6.967)">
                <path id="Path_58057" data-name="Path 58057" d="M301.987,154.611c.272.519.965.609,1.551.62a63.579,63.579,0,0,0,6.727-.364,1.27,1.27,0,0,0,.7-.206,1.243,1.243,0,0,0,.349-.727,35.328,35.328,0,0,0,.641-11.746L303,141.326a1.029,1.029,0,0,0-1.372,1.254q.115,5.635.231,11.271A1.688,1.688,0,0,0,301.987,154.611Z" transform="translate(-301.622 -141.305)" fill="#172f35"/>
              </g>
            </g>
            <g id="Group_101118" data-name="Group 101118" transform="translate(0.637 7.611)">
              <path id="Path_58058" data-name="Path 58058" d="M317.612,158.577c-.03-3.035-.082-8.2-.11-11.013-.014-1.457-1.139-2.118-2.408-2.448-1.132-.294-13.206-2.788-13.2-2.813a2.288,2.288,0,0,0,.524,1.742,6.787,6.787,0,0,0,1.4,1.238,8.352,8.352,0,0,0-1.59,1.357,2.808,2.808,0,0,0-.724,1.914,1.713,1.713,0,0,0,1.179,1.566,3.549,3.549,0,0,0-.9,1.789c-.054.675.456,1.438,1.131,1.381a8.862,8.862,0,0,0-.387,2.508,5.634,5.634,0,0,1,3.194,4.084,1.2,1.2,0,0,0,.985-.667c.015-.027.023-.057.037-.084a18.994,18.994,0,0,1,2.915,2.933,14.107,14.107,0,0,0,7.937-1.014C317.624,160.226,317.62,159.4,317.612,158.577Z" transform="translate(-301.494 -142.304)" fill="#ffc088"/>
            </g>
          </g>
        </g>
        <g id="Group_101127" data-name="Group 101127" transform="translate(0 11.173)">
          <g id="Group_101121" data-name="Group 101121" transform="translate(0 31.636)">
            <path id="Path_58059" data-name="Path 58059" d="M132.123,152.838c-4.193,4.568-5.719,11-6.1,17.187-.562,9.021.959,18.046,3.014,26.848,1.511,6.474,3.337,12.939,6.449,18.813s7.614,11.171,13.48,14.3c8.921,4.757,19.759,3.973,29.631,1.8s19.585-5.633,29.693-5.85c3.423-.073,7.445-.039,9.479-2.792,1.387-1.876,1.306-4.421,1.155-6.748q-.809-12.4-2.045-24.762c-.809-8.1-1.768-16.232-4.16-24.008s-6.313-15.242-12.3-20.752a24.723,24.723,0,0,0-10.225-5.933c-4.012-1.06-8.244-.773-12.375-.384q-13.379,1.259-26.592,3.831C144.269,145.74,136.916,147.617,132.123,152.838Z" transform="translate(-125.901 -140.201)" fill="#ffb408"/>
          </g>
          <g id="Group_101124" data-name="Group 101124" transform="translate(0.729)">
            <g id="Group_101122" data-name="Group 101122">
              <path id="Path_58060" data-name="Path 58060" d="M127.05,103.357l1.922,23.442a5.242,5.242,0,0,0,5.94,4.813l56.911-8.247a5.288,5.288,0,0,0,4.466-5.7L194.5,96a5.244,5.244,0,0,0-5.781-4.83l-57.04,6.471A5.285,5.285,0,0,0,127.05,103.357Z" transform="translate(-127.032 -91.137)" fill="#172f35"/>
            </g>
            <g id="Group_101123" data-name="Group 101123" transform="translate(3.684 1.322)">
              <path id="Path_58061" data-name="Path 58061" d="M132.762,104.81,134.62,127.1a5.048,5.048,0,0,0,5.743,4.578l55.024-7.843a5.048,5.048,0,0,0,4.318-5.42l-1.733-20.606a5.048,5.048,0,0,0-5.59-4.594l-55.149,6.155A5.047,5.047,0,0,0,132.762,104.81Z" transform="translate(-132.745 -93.188)" fill="#a6bebd"/>
            </g>
          </g>
          <g id="Group_101125" data-name="Group 101125" transform="translate(27.13 39.664)">
            <path id="Path_58062" data-name="Path 58062" d="M206.429,152.735a176.984,176.984,0,0,0-37.66,6.325,1.093,1.093,0,0,0-.482,1.814,20.566,20.566,0,0,1,2.02,2.47c7.481,10.651,7.3,24.875,7.69,37.319.319,10.235-.046,20.474-.42,30.7-.049,1.347-.013,2.921,1.066,3.728a4.155,4.155,0,0,0,2.662.521,315.18,315.18,0,0,0,52.538-6.118c.905-23.8-1.133-44.908-8.549-62.593-.99-2.361-7.9-11.454-10.076-12.8C212.657,152.512,209.439,152.56,206.429,152.735Z" transform="translate(-167.975 -152.651)" fill="#172f35"/>
          </g>
          <g id="Group_101126" data-name="Group 101126" transform="translate(4.114 43.056)">
            <path id="Path_58063" data-name="Path 58063" d="M156.13,170.7a33.079,33.079,0,0,0-4.478-7.887,12.474,12.474,0,0,0-6.961-4.692c-4.858-1.049-9.964,1.992-12.41,6.318a12.1,12.1,0,0,1,11.515-1.976A18.422,18.422,0,0,1,153.122,170a39.683,39.683,0,0,1,4.768,11.194c5.1,17.844,4.882,36.767,3.4,55.267C164.1,214.289,164.249,191.517,156.13,170.7Z" transform="translate(-132.281 -157.912)" fill="#ffc088"/>
          </g>
        </g>
        <g id="Group_101134" data-name="Group 101134" transform="translate(49.521 40.387)">
          <rect id="Rectangle_6794" data-name="Rectangle 6794" width="48.521" height="10.317" transform="translate(6.479 75.961)" fill="#172f35"/>
          <g id="Group_101128" data-name="Group 101128" transform="translate(0 2.768)">
            <path id="Path_58064" data-name="Path 58064" d="M259.518,151.577a5.535,5.535,0,0,0-1.183-2.484c-1.345-1.381-3.57-1.12-5.485-1.342-3.546-.412-6.6-2.824-8.624-5.78-6.988,3.19-15.134,3.806-21.4-1.233a24.626,24.626,0,0,1-2.061,1.725,38.938,38.938,0,0,1-12.436,5.827,9.137,9.137,0,0,0-4.265,2.068c-1.923,2.049-1.39,5.294-.82,8.046a128.754,128.754,0,0,1-.422,53.883,5.262,5.262,0,0,0,4.216,6.293,121.111,121.111,0,0,0,53.315-2.181C255.02,195.326,265.221,172.554,259.518,151.577Z" transform="translate(-202.702 -140.738)" fill="#a6bebd"/>
          </g>
          <g id="Group_101129" data-name="Group 101129" transform="translate(19.469 22.856)">
            <path id="Path_58065" data-name="Path 58065" d="M244.919,176.785a30.651,30.651,0,0,1-12.012,1.343q-.006-2.347-.012-4.694,5.983-.5,11.9-1.543Q244.859,174.338,244.919,176.785Z" transform="translate(-232.895 -171.891)" fill="#fff"/>
          </g>
          <g id="Group_101132" data-name="Group 101132" transform="translate(31.393 6.935)">
            <g id="Group_101130" data-name="Group 101130">
              <path id="Path_58066" data-name="Path 58066" d="M251.388,147.49c3.056,3.266,3.141,8.232,3.067,12.7q-.534,32.478.409,64.957l5.795-.5-1.375-61.008c-.124-5.527-.259-11.123-1.747-16.447Z" transform="translate(-251.388 -147.201)" fill="#172f35"/>
            </g>
            <g id="Group_101131" data-name="Group 101131" transform="translate(3.624 0.73)">
              <path id="Path_58067" data-name="Path 58067" d="M260.022,198.7c-.533-11.151-1.086-22.681-.221-34.107.473-6.258-.751-11.174-2.142-16.262-.217.049-.433.089-.651.128,1.381,5.048,2.6,9.918,2.133,16.084-.867,11.467-.314,23.017.22,34.188.173,3.592.35,7.307.479,10.98a79.981,79.981,0,0,1-.333,14.066.33.33,0,0,0,.28.374.387.387,0,0,0,.047,0,.331.331,0,0,0,.327-.284,80.622,80.622,0,0,0,.34-14.182C260.371,206.012,260.194,202.3,260.022,198.7Z" transform="translate(-257.008 -148.333)" fill="#a6bebd"/>
            </g>
          </g>
          <g id="Group_101133" data-name="Group 101133" transform="translate(18.221)">
            <path id="Path_58068" data-name="Path 58068" d="M230.96,140.741a22.75,22.75,0,0,0,25.707,1.556,7.3,7.3,0,0,1-2.107-3.028,22.2,22.2,0,0,1-10.641,2.121,12.855,12.855,0,0,1-9.4-4.944A10.776,10.776,0,0,1,230.96,140.741Z" transform="translate(-230.96 -136.445)" fill="#172f35"/>
          </g>
        </g>
        <g id="Group_101138" data-name="Group 101138" transform="translate(61.455 176.641)">
          <g id="Group_101135" data-name="Group 101135" transform="translate(0 0)">
            <path id="Path_58069" data-name="Path 58069" d="M243.742,347.757H236.9c-8.667,0-15.693,14.56-15.693,32.52S228.236,412.8,236.9,412.8h6.839c8.667,0,15.693-14.56,15.693-32.519S252.409,347.757,243.742,347.757Z" transform="translate(-221.21 -347.757)" fill="#172f35"/>
          </g>
          <g id="Group_101136" data-name="Group 101136" transform="translate(5.135 9.604)">
            <ellipse id="Ellipse_4" data-name="Ellipse 4" cx="7.322" cy="22.916" rx="7.322" ry="22.916" fill="#a6bebd"/>
          </g>
          <g id="Group_101137" data-name="Group 101137" transform="translate(4.672 8.778)">
            <ellipse id="Ellipse_5" data-name="Ellipse 5" cx="6.131" cy="19.19" rx="6.131" ry="19.19" fill="#172f35"/>
          </g>
        </g>
        <g id="Group_101143" data-name="Group 101143" transform="translate(39.08 131.798)">
          <g id="Group_101139" data-name="Group 101139" transform="translate(24.895)">
            <path id="Path_58070" data-name="Path 58070" d="M289.789,293.752a41.059,41.059,0,0,0-56.007-7.932c-3.043,2.17-5.86,4.856-7.349,8.284-2.186,5.034-1.21,10.811-.2,16.205q4.015,21.381,8.031,42.763a11.294,11.294,0,0,0,1.65,4.733c1.314,1.78,3.531,2.621,5.658,3.232,15.823,4.542,32.708,1.27,48.837-2.022,3.254-.665,6.841-1.542,8.7-4.3a12.119,12.119,0,0,0,1.6-5.163,98.448,98.448,0,0,0,.017-27.474C299.3,311.94,296.153,301.781,289.789,293.752Z" transform="translate(-225.118 -278.21)" fill="#172f35"/>
          </g>
          <g id="Group_101140" data-name="Group 101140" transform="translate(0 16.997)">
            <path id="Path_58071" data-name="Path 58071" d="M222.429,319.809c-2.322-5.791-5.685-13.056-12.136-14.835-5.441-1.5-11.364,1.35-14.967,5.694s-5.314,9.925-6.632,15.413a79.491,79.491,0,0,0,2.263,44.729c13.049,1.449,23.582,2.241,37.274,1.671.828-.035.89-14.952.863-16.39a112.484,112.484,0,0,0-1.548-16.543,95.455,95.455,0,0,0-4.958-19.343Z" transform="translate(-186.51 -304.571)" fill="#ffb408"/>
          </g>
          <g id="Group_101141" data-name="Group 101141" transform="translate(20.428 31.545)">
            <path id="Path_58072" data-name="Path 58072" d="M233.519,331.713c2.887,7.186,2.815,15.289,1.185,22.86s-4.737,14.731-7.825,21.834c-.518,1.191-1.479,2.614-2.732,2.276-.933-.251-1.313-1.343-1.55-2.28-1.771-7.017-3.548-14.07-4.175-21.28s-.059-14.646,2.72-21.328a12.076,12.076,0,0,1,4.058-5.631c1.953-1.3,4.816-1.487,6.52.129Z" transform="translate(-218.191 -327.133)" fill="#172f35"/>
          </g>
          <g id="Group_101142" data-name="Group 101142" transform="translate(34.708 76.066)">
            <path id="Path_58073" data-name="Path 58073" d="M255.7,401.8c-5.482-.606-11.5-1.479-15.138-5.623a6.724,6.724,0,0,0,1.962,6.487,16.3,16.3,0,0,0,6.14,3.49c16.168,5.919,34.038,4.693,51.039,1.971.835-2.441-1.924.754-1.089-1.687C283.635,410.832,271.225,403.518,255.7,401.8Z" transform="translate(-240.337 -396.178)" fill="#ffb408"/>
          </g>
        </g>
        <g id="Group_101144" data-name="Group 101144" transform="translate(29.202 219.395)">
          <path id="Path_58074" data-name="Path 58074" d="M171.19,414.36c8.359,5.984,19.1,8.531,28.926,5.51C191.025,415.585,181.172,413.182,171.19,414.36Z" transform="translate(-171.19 -414.062)" fill="#172f35"/>
        </g>
        <g id="Group_101145" data-name="Group 101145" transform="translate(33.839 218.255)">
          <path id="Path_58075" data-name="Path 58075" d="M196.814,427.7l1.352-14.3a84.161,84.161,0,0,1-17.934-1.1A107.047,107.047,0,0,1,178.38,425.4Z" transform="translate(-178.38 -412.294)" fill="#fff"/>
        </g>
        <g id="Group_101146" data-name="Group 101146" transform="translate(121.81 101.855)">
          <path id="Path_58076" data-name="Path 58076" d="M349.4,293.9a105.733,105.733,0,0,1-7.072-27.8c-1.424-11.247-1.568-22.612-1.709-33.948a69.489,69.489,0,0,0-25.809,2.118c5.721,21.195,12.639,43.181,25.069,62.329C343.079,295.87,346.25,294.895,349.4,293.9Z" transform="translate(-314.812 -231.773)" fill="#ffc088"/>
        </g>
        <g id="Group_101147" data-name="Group 101147" transform="translate(28.903 226.268)">
          <path id="Path_58077" data-name="Path 58077" d="M187.729,424.87a8.712,8.712,0,0,1,5.3,2.82c2.256,2.7,2.128,6.616,1.682,10.106s-1.049,7.232.54,10.37q-12.08-.043-24.127,1.095c-.832-5.681-.491-11.755,2.349-16.746S182.063,423.932,187.729,424.87Z" transform="translate(-170.726 -424.721)" fill="#0c4e5f"/>
        </g>
        <g id="Group_101148" data-name="Group 101148" transform="translate(40.512 225.712)">
          <path id="Path_58078" data-name="Path 58078" d="M191.982,423.918a3.41,3.41,0,0,0-2.624,1.265,3.675,3.675,0,0,0-.443,1.54,25.2,25.2,0,0,0,1.189,11.249,2.167,2.167,0,0,0,.975,1.38,2.394,2.394,0,0,0,1.127.1,17.939,17.939,0,0,1,7.495,1.164,53.468,53.468,0,0,1,.391-11.265,4.435,4.435,0,0,0-.242-2.976,3.557,3.557,0,0,0-1.371-1.154A11.183,11.183,0,0,0,191.982,423.918Z" transform="translate(-188.73 -423.858)" fill="#ffb408"/>
        </g>
        <g id="Group_101149" data-name="Group 101149" transform="translate(29.164 234.004)">
          <path id="Path_58079" data-name="Path 58079" d="M174.724,437.9a2.552,2.552,0,0,1,2.152-1.165,2.333,2.333,0,0,1,1.558,1.342,17.624,17.624,0,0,1,1.208,4.152,5.915,5.915,0,0,0,2.142,3.654,18.437,18.437,0,0,1-7.621,3.7,4.18,4.18,0,0,1-1.655.116,1.669,1.669,0,0,1-1.282-.955,2.526,2.526,0,0,1,0-1.366C171.854,444.029,172.551,440.523,174.724,437.9Z" transform="translate(-171.131 -436.719)" fill="#a6bebd"/>
        </g>
        <g id="Group_101150" data-name="Group 101150" transform="translate(27.651 238.283)">
          <path id="Path_58080" data-name="Path 58080" d="M195.182,451.541c-.116-2.555-.739-5.32-2.74-6.913-2.359-1.878-5.862-1.469-8.56-.122a59.974,59.974,0,0,0-5.788,3.775,12.06,12.06,0,0,1-6.413,2.317,3.453,3.453,0,0,0-2.125.354,2.83,2.83,0,0,0-.765,2.273,3.976,3.976,0,0,0,.561,2.659,3.847,3.847,0,0,0,2.682,1.057c6.273.674,12.605.262,18.9-.15a5.455,5.455,0,0,0,2.663-.638C195.027,455.225,195.26,453.244,195.182,451.541Z" transform="translate(-168.784 -443.355)" fill="#ffc088"/>
        </g>
        <g id="Group_101171" data-name="Group 101171" transform="translate(62.769)">
          <g id="Group_101151" data-name="Group 101151" transform="translate(6.805 9.882)">
            <path id="Path_58081" data-name="Path 58081" d="M261.129,95.086a24.965,24.965,0,0,1-3.52,20.962,8.924,8.924,0,0,1-3.325,3.117c-2.574,1.205-5.591.24-8.261-.734-3.006-1.1-6.128-2.268-8.322-4.6a15.471,15.471,0,0,1-3.575-8.164c-.6-3.55-.495-7.4,1.353-10.486,2.3-3.849,6.946-5.8,11.425-6.022s8.887,1.02,13.2,2.25Z" transform="translate(-233.8 -89.136)" fill="#172f35"/>
          </g>
          <g id="Group_101159" data-name="Group 101159" transform="translate(7.233 8.764)">
            <g id="Group_101152" data-name="Group 101152" transform="translate(0.924 24.914)">
              <path id="Path_58082" data-name="Path 58082" d="M256.712,137.691c-.337-.424-.655-.863-.947-1.314-2.018-3.125-3.071-6.76-4.1-10.336l-11.247.169a19.177,19.177,0,0,1-4.525,8.02C241.654,138.685,249.686,139.143,256.712,137.691Z" transform="translate(-235.897 -126.041)" fill="#ffc088"/>
            </g>
            <g id="Group_101153" data-name="Group 101153">
              <path id="Path_58083" data-name="Path 58083" d="M260.255,102.6c-.025-.133-.052-.266-.081-.4-.217-.988-.667-2.161-.163-3.143.785-1.529.661-1.9-.359-5.064l-1.1-2.461A14.087,14.087,0,0,0,248.339,87.4a27.386,27.386,0,0,0-10.95,2.567c-1.157.5-2.41,1.155-2.8,2.353a4.562,4.562,0,0,0,0,2.123c.455,2.806,1.01,5.594,1.564,8.382a24.159,24.159,0,0,0,1.966,6.558c1.346,2.575,3.563,4.567,5.732,6.5a11.615,11.615,0,0,0,2.865,2.069,7.233,7.233,0,0,0,6.49-.6,13.177,13.177,0,0,0,4.537-4.924,22.685,22.685,0,0,0,2.559-6.754A8,8,0,0,0,260.255,102.6Z" transform="translate(-234.463 -87.402)" fill="#ffc088"/>
            </g>
            <g id="Group_101158" data-name="Group 101158" transform="translate(8.961 9.767)">
              <g id="Group_101155" data-name="Group 101155">
                <path id="Path_58084" data-name="Path 58084" d="M248.78,105.316a6.233,6.233,0,0,1,5.075-1.936,1.737,1.737,0,0,1,.422-.787,6.9,6.9,0,0,0-5.915,2.364A1.412,1.412,0,0,1,248.78,105.316Z" transform="translate(-248.361 -102.549)" fill="#0c4e5f"/>
                <g id="Group_101154" data-name="Group 101154" transform="translate(2.6 3.285)">
                  <path id="Path_58085" data-name="Path 58085" d="M253.4,110.167a.971.971,0,0,1-.585-.069.791.791,0,0,1-.318-.435,1.726,1.726,0,0,1-.03-1.065,1.383,1.383,0,0,1,.625-.823.989.989,0,0,1,1.007.014,1.525,1.525,0,0,1,.532,1.143,1.263,1.263,0,0,1-.037.6.908.908,0,0,1-.5.482A2.29,2.29,0,0,1,253.4,110.167Z" transform="translate(-252.393 -107.645)" fill="#0c4e5f"/>
                  <path id="Path_58086" data-name="Path 58086" d="M254.631,109.164a.577.577,0,0,0-.56-.339c-.242.048-.367.322-.406.566a1.1,1.1,0,0,0,.026.521.587.587,0,0,0,.345.373.574.574,0,0,0,.672-.332A.9.9,0,0,0,254.631,109.164Z" transform="translate(-252.839 -108.061)" fill="#172f35"/>
                  <path id="Path_58087" data-name="Path 58087" d="M253.425,109.334a.284.284,0,0,0,.221-.1.317.317,0,0,0,.011-.44.261.261,0,0,0-.279-.023.331.331,0,0,0-.166.232A.277.277,0,0,0,253.425,109.334Z" transform="translate(-252.683 -108.033)" fill="#fff"/>
                </g>
              </g>
              <g id="Group_101157" data-name="Group 101157" transform="translate(13.089 0.12)">
                <path id="Path_58088" data-name="Path 58088" d="M269.7,103.4a2,2,0,0,1,1.757,1.092c0,.006.009.012.013.019a.375.375,0,0,0,.221-.379.9.9,0,0,0-.276-.493,3.066,3.066,0,0,0-.932-.715,1.8,1.8,0,0,0-1.15-.15.892.892,0,0,0-.62.429.543.543,0,0,0,.006.473A1.939,1.939,0,0,1,269.7,103.4Z" transform="translate(-268.66 -102.735)" fill="#0c4e5f"/>
                <g id="Group_101156" data-name="Group 101156" transform="translate(0.836 2.95)">
                  <path id="Path_58089" data-name="Path 58089" d="M269.96,108.5a1.087,1.087,0,0,1,.206-.7.907.907,0,0,1,.883-.469.781.781,0,0,1,.511.467,2.142,2.142,0,0,1,.138.7.916.916,0,0,1-.208.8.757.757,0,0,1-.7.055A1.124,1.124,0,0,1,269.96,108.5Z" transform="translate(-269.956 -107.311)" fill="#0c4e5f"/>
                  <path id="Path_58090" data-name="Path 58090" d="M271.549,108.4a.374.374,0,0,0-.377-.159.4.4,0,0,0-.21.25.954.954,0,0,0-.083.5.478.478,0,0,0,.3.386.461.461,0,0,0,.542-.326A.728.728,0,0,0,271.549,108.4Z" transform="translate(-270.281 -107.639)" fill="#172f35"/>
                  <path id="Path_58091" data-name="Path 58091" d="M270.955,108.484a.218.218,0,0,0,.168-.079.241.241,0,0,0,.008-.335.2.2,0,0,0-.211-.018.253.253,0,0,0-.126.177A.211.211,0,0,0,270.955,108.484Z" transform="translate(-270.252 -107.566)" fill="#fff"/>
                </g>
              </g>
            </g>
          </g>
          <g id="Group_101164" data-name="Group 101164" transform="translate(9.581 23.101)">
            <g id="Group_101160" data-name="Group 101160" transform="translate(5.173)">
              <path id="Path_58092" data-name="Path 58092" d="M262.714,110.383c-2.075-1.2-5.843-.685-8.086-.3a27.155,27.155,0,0,0-6.958,2.764,2.732,2.732,0,0,0-1.4,1.226,2.789,2.789,0,0,0-.139,1.086q.023,2.822.259,5.638a5.309,5.309,0,0,0,.369,1.792,4.515,4.515,0,0,0,1.185,1.45,7.663,7.663,0,0,0,2.443,1.518c1.463.521,5.427,1.374,6.874.808s1.312-.624,2.369-1.763a23.107,23.107,0,0,0,4.849-7.438c.5-1.267,1.054-3.535.551-4.242A14.146,14.146,0,0,0,262.714,110.383Z" transform="translate(-246.129 -109.637)" fill="#172f35"/>
            </g>
            <g id="Group_101161" data-name="Group 101161" transform="translate(6.454 0.816)">
              <path id="Path_58093" data-name="Path 58093" d="M256.875,111.012a15.18,15.18,0,0,0-8.759,3.7c.312,3.094.387,5.849.792,8.943a8.443,8.443,0,0,0,1.694,2.169,10.952,10.952,0,0,0,5.434,1.873c3.279.5,5.477-1.618,7.273-4.408s2.573-6.783,2.92-10.083C263.3,110.846,260.625,110.728,256.875,111.012Z" transform="translate(-248.116 -110.902)" fill="#fff"/>
            </g>
            <g id="Group_101162" data-name="Group 101162" transform="translate(0 1.171)">
              <path id="Path_58094" data-name="Path 58094" d="M245.04,115.86c-2.565-1.371-4.269-2.33-5.916-3.258l-1.018-.573.323-.576,1.019.573c1.644.926,3.345,1.883,5.9,3.25Z" transform="translate(-238.106 -111.453)" fill="#fff"/>
            </g>
            <g id="Group_101163" data-name="Group 101163" transform="translate(1.227 8.658)">
              <rect id="Rectangle_6795" data-name="Rectangle 6795" width="0.661" height="7.171" transform="matrix(0.438, -0.899, 0.899, 0.438, 0, 0.594)" fill="#fff"/>
            </g>
          </g>
          <g id="Group_101170" data-name="Group 101170">
            <g id="Group_101165" data-name="Group 101165" transform="translate(7.233 8.764)">
              <path id="Path_58095" data-name="Path 58095" d="M241.1,98.684c3.058-2.452,13.14-1.873,19.367-2.342-.127-.614-.429-1.132-.82-2.343l-1.1-2.461A14.087,14.087,0,0,0,248.339,87.4a27.386,27.386,0,0,0-10.95,2.567c-1.157.5-2.41,1.155-2.8,2.353a4.562,4.562,0,0,0,0,2.123c.455,2.806,1.01,5.594,1.564,8.382a24.159,24.159,0,0,0,1.966,6.558,14.163,14.163,0,0,0,1.455,2.2C238.745,106.524,238.043,101.745,241.1,98.684Z" transform="translate(-234.463 -87.402)" fill="#172f35"/>
            </g>
            <g id="Group_101169" data-name="Group 101169">
              <g id="Group_101166" data-name="Group 101166">
                <path id="Path_58096" data-name="Path 58096" d="M236.725,74.6a18.021,18.021,0,0,0-9.376,5.771,20.241,20.241,0,0,0-3.916,10.593,24.142,24.142,0,0,0,.875,10.275,14.891,14.891,0,0,0,6.756,8.471,3,3,0,0,0,1.8.4c1.735-.23,2.078-2,2.141-3.486a41.585,41.585,0,0,0-.892-10.425,4.107,4.107,0,0,1,3.807-4.991c6.878-.322,13.706-.391,20.618-.884a1.465,1.465,0,0,0,.9-.271A1.4,1.4,0,0,0,259.765,89a15.208,15.208,0,0,0-7.8-12.81A20.266,20.266,0,0,0,236.725,74.6Z" transform="translate(-223.247 -73.81)" fill="#ffb408"/>
              </g>
              <g id="Group_101167" data-name="Group 101167" transform="translate(7.853 15.119)">
                <path id="Path_58097" data-name="Path 58097" d="M236.658,118.579a1.668,1.668,0,0,1-1.122-.408.33.33,0,0,1,.44-.493,1.028,1.028,0,0,0,.769.237,1.693,1.693,0,0,0,1.128-.564,4.083,4.083,0,0,0,.755-2.3,20.533,20.533,0,0,0-.563-7.2c-.064-.25-.134-.5-.2-.753-.477-1.729-.969-3.516-.264-5.184a5.293,5.293,0,0,1,3.312-2.794,15.027,15.027,0,0,1,4.227-.563l15.1-.555a9.724,9.724,0,0,0,3.955-.7.33.33,0,0,1,.294.592,10.217,10.217,0,0,1-4.225.771l-15.1.556a14.528,14.528,0,0,0-4.044.529,4.638,4.638,0,0,0-2.911,2.424c-.616,1.455-.154,3.131.292,4.75.07.256.141.51.206.762a21.2,21.2,0,0,1,.582,7.437,4.724,4.724,0,0,1-.913,2.67,2.341,2.341,0,0,1-1.586.792C236.744,118.577,236.7,118.579,236.658,118.579Z" transform="translate(-235.425 -97.257)" fill="#a6bebd"/>
              </g>
              <g id="Group_101168" data-name="Group 101168" transform="translate(1.696 0.915)">
                <path id="Path_58098" data-name="Path 58098" d="M246.573,75.6a17.089,17.089,0,0,0-19.558,22.947,18.715,18.715,0,0,1,14.93-22.313Z" transform="translate(-225.877 -75.23)" fill="#ffc088"/>
              </g>
            </g>
          </g>
        </g>
        <g id="Group_101176" data-name="Group 101176" transform="translate(37.949 51.027)">
          <g id="Group_101172" data-name="Group 101172" transform="translate(9.319 4.969)">
            <path id="Path_58099" data-name="Path 58099" d="M209.671,160.946a2.427,2.427,0,0,1,2.668.259,5.775,5.775,0,0,1,1.647,2.289,26.959,26.959,0,0,1,1.776,14.934,80.425,80.425,0,0,1-3.928,14.705,134.125,134.125,0,0,0,19.175,9.741,48.449,48.449,0,0,1-31.8-4.093c6.239-10.476,7.286-23.1,9.2-35.148A3.688,3.688,0,0,1,209.671,160.946Z" transform="translate(-199.208 -160.654)" fill="#172f35"/>
          </g>
          <g id="Group_101173" data-name="Group 101173">
            <path id="Path_58100" data-name="Path 58100" d="M212.185,213.46c2.815.707,5.874,1.3,8.545.161,2.172-.923,3.735-2.847,5.139-4.746,1.434-1.94,2.855-4.456,1.8-6.625-.952-1.956-3.4-2.537-5.524-3.022a56.492,56.492,0,0,1-18.559-7.948c.9-4.51,2.78-8.754,4.327-13.084s2.782-8.91,2.3-13.483-2.973-9.167-7.162-11.062a6.38,6.38,0,0,0-4.432-.494c-2.052.629-3.375,2.58-4.428,4.45-6.46,11.482-5.432,23.506-9.224,38.013a8.711,8.711,0,0,0,1.146,6.433c1.253,2.124,3.593,3.324,5.838,4.342A119.741,119.741,0,0,0,212.185,213.46Z" transform="translate(-184.755 -152.947)" fill="#a6bebd"/>
          </g>
          <g id="Group_101174" data-name="Group 101174" transform="translate(35.172 49.433)">
            <path id="Path_58101" data-name="Path 58101" d="M239.4,236.249a4.4,4.4,0,0,0,.791,3.777,5.468,5.468,0,0,0,2.359,1.221,5.07,5.07,0,0,0,2.339.366,4.156,4.156,0,0,0,2.117-1.232,11.384,11.384,0,0,0,3.129-5.368,4.821,4.821,0,0,0-.173-3.459,3.919,3.919,0,0,0-2.708-1.839,6.213,6.213,0,0,0-5.273,1.566A8.565,8.565,0,0,0,239.4,236.249Z" transform="translate(-239.302 -229.61)" fill="#172f35"/>
          </g>
          <g id="Group_101175" data-name="Group 101175" transform="translate(0.014 44.502)">
            <path id="Path_58102" data-name="Path 58102" d="M219.737,238.08a.33.33,0,0,1-.294-.179c-.355-.689-.794-.653-1.678-.515a4.157,4.157,0,0,1-2.1-.057A84.844,84.844,0,0,0,206.815,235a87.481,87.481,0,0,1-8.734-2.289c-5.409-1.826-10.762-4.335-13.278-10.283a.331.331,0,0,1,.609-.257c2.414,5.707,7.618,8.138,12.881,9.914a86.937,86.937,0,0,0,8.667,2.271,85.494,85.494,0,0,1,8.92,2.352,3.574,3.574,0,0,0,1.782.03c.834-.131,1.78-.278,2.368.866a.33.33,0,0,1-.293.482Z" transform="translate(-184.777 -221.964)" fill="#e8e8e8"/>
          </g>
        </g>
        <g id="Group_101177" data-name="Group 101177" transform="translate(38.38 230.681)">
          <path id="Path_58103" data-name="Path 58103" d="M187,433.419a14.81,14.81,0,0,1,6.366-1.849,8.853,8.853,0,0,1,6.177,2.042,3.087,3.087,0,0,1,.9,2.036.238.238,0,0,1-.408.172,9.272,9.272,0,0,0-6.751-2.7,12.545,12.545,0,0,0-7.4,3,1.167,1.167,0,0,1-.275-1.571A3.331,3.331,0,0,1,187,433.419Z" transform="translate(-185.423 -431.565)" fill="#172f35"/>
        </g>
        <g id="Group_101178" data-name="Group 101178" transform="translate(38.504 232.974)">
          <path id="Path_58104" data-name="Path 58104" d="M187.192,436.976a14.814,14.814,0,0,1,6.366-1.85,8.858,8.858,0,0,1,6.178,2.043,3.092,3.092,0,0,1,.9,2.036.239.239,0,0,1-.409.172,9.271,9.271,0,0,0-6.751-2.7,12.545,12.545,0,0,0-7.4,3,1.165,1.165,0,0,1-.275-1.57A3.327,3.327,0,0,1,187.192,436.976Z" transform="translate(-185.615 -435.121)" fill="#172f35"/>
        </g>
        <g id="Group_101179" data-name="Group 101179" transform="translate(38.986 235.746)">
          <path id="Path_58105" data-name="Path 58105" d="M186.6,442.56a9.687,9.687,0,0,1,6.462-3.112,11.086,11.086,0,0,1,6.955,1.92,2.3,2.3,0,0,1,.926.983.906.906,0,0,1-.4,1.167,11.852,11.852,0,0,0-13.482-.342c-.179.117-.416.24-.589.114C186.247,443.125,186.412,442.769,186.6,442.56Z" transform="translate(-186.364 -439.421)" fill="#172f35"/>
        </g>
        <g id="Group_101184" data-name="Group 101184" transform="translate(29.135 123.875)">
          <g id="Group_101180" data-name="Group 101180" transform="translate(19.191)">
            <path id="Path_58106" data-name="Path 58106" d="M241.367,266.032H219.911c-4.432.743-10.179-1.421-13.429,1.362-5.1,4.372-6.2,14.935-5.394,21.194a5.6,5.6,0,0,0,1.232,3.18c1.648,1.794,4.686,1.7,7.291,1.707a39.071,39.071,0,0,1,13.99,2.617c2.619,1.017,5.4,2.354,8.171,1.717,2.084-.48,3.637-1.985,5.06-3.421,3.33-3.362,6.689-6.809,8.725-10.906s2.587-9.014.26-12.988A13.658,13.658,0,0,0,241.367,266.032Z" transform="translate(-200.849 -265.924)" fill="#a6bebd"/>
          </g>
          <g id="Group_101181" data-name="Group 101181" transform="translate(0 3.998)">
            <path id="Path_58107" data-name="Path 58107" d="M226.621,275.5c-1.356-1.624-3.013-3.349-5.129-3.379a7.124,7.124,0,0,0-4.237,1.885c-8.692,6.71-14.959,16.045-20.428,25.566a247.2,247.2,0,0,0-25.742,64.374,190.716,190.716,0,0,1,28.959,5.555c7.084-24.542,14.28-49.352,26.958-71.529,2.472-4.325,5.251-9.041,4.393-13.948C230.829,280.781,228.734,278.033,226.621,275.5Z" transform="translate(-171.086 -272.123)" fill="#a6bebd"/>
          </g>
          <g id="Group_101182" data-name="Group 101182" transform="translate(20.458 19.384)">
            <path id="Path_58108" data-name="Path 58108" d="M202.813,302.136a5.77,5.77,0,0,0,5.54,2.028,9.489,9.489,0,0,0,5.264-3.074,28.269,28.269,0,0,0,3.511-5.1A21.392,21.392,0,0,1,202.813,302.136Z" transform="translate(-202.813 -295.985)" fill="#172f35"/>
          </g>
          <g id="Group_101183" data-name="Group 101183" transform="translate(3.013 12.998)">
            <path id="Path_58109" data-name="Path 58109" d="M176.089,369.517a.351.351,0,0,1-.085-.011.331.331,0,0,1-.234-.4c4.832-18.09,12.282-37.051,22.774-57.964,2.649-5.282,5.656-10.678,10.659-13.551a.615.615,0,0,0,.315-.493.584.584,0,0,0-.226-.509l-.83-.654a1.491,1.491,0,0,1-.562-1.317,1.446,1.446,0,0,1,.773-1.154,17.858,17.858,0,0,1,5.294-1.768,11.454,11.454,0,0,0-3.4-.213.8.8,0,0,1-.551-1.428,21.265,21.265,0,0,1,3.854-2.334l-11.692,2.228a16.776,16.776,0,0,1-5.675.42,5.455,5.455,0,0,1-4.492-3.068.331.331,0,0,1,.609-.259,4.855,4.855,0,0,0,3.983,2.673,16.288,16.288,0,0,0,5.452-.417l16.817-3.2a.331.331,0,1,1,.124.65,20.577,20.577,0,0,0-8.579,3.837.127.127,0,0,0-.041.156.126.126,0,0,0,.135.088,12.259,12.259,0,0,1,3.593.221.663.663,0,0,1-.029,1.3,17.221,17.221,0,0,0-5.1,1.7.781.781,0,0,0-.42.631.833.833,0,0,0,.313.736l.83.654a1.253,1.253,0,0,1,.476,1.077,1.286,1.286,0,0,1-.645,1.018c-4.844,2.781-7.793,8.083-10.4,13.275-10.472,20.872-17.9,39.791-22.726,57.837A.331.331,0,0,1,176.089,369.517Z" transform="translate(-175.758 -286.081)" fill="#e8e8e8"/>
          </g>
        </g>
        <g id="Group_101228" data-name="Group 101228" transform="translate(71.652 60.368)">
          <g id="Group_101193" data-name="Group 101193" transform="translate(18.494 41.487)">
            <g id="Group_101190" data-name="Group 101190" transform="translate(0 4.318)">
              <g id="Group_101185" data-name="Group 101185">
                <path id="Path_58110" data-name="Path 58110" d="M345.129,258.217c-1.486-4.8-3.088-9.8-6.63-13.357-4.748-4.772-11.966-5.971-18.689-6.282-13.194-.612-26.719,1.33-38.5,7.306-4.053,2.057-7.96,4.658-10.615,8.347-3.371,4.682-4.4,10.639-4.783,16.395-1.332,20.01,3.975,39.793,6.23,59.72.673,5.941.889,12.557-2.86,17.215-1.154,1.434-2.748,3.172-1.93,4.821.6,1.214,2.173,1.5,3.521,1.633,19.7,1.934,40.13,2,58.638-5.027,10.456-3.969,20.488-10.626,25.422-20.663,3.45-7.016,4.124-15.137,3.259-22.908s-3.189-15.293-5.5-22.762Q348.911,270.436,345.129,258.217Z" transform="translate(-265.704 -238.47)" fill="#ffb408"/>
              </g>
              <g id="Group_101186" data-name="Group 101186" transform="translate(31.313 59.625)">
                <path id="Path_58111" data-name="Path 58111" d="M365.295,344.978c-3.5-6.823-9.8-12.54-17.368-13.783-6.968-1.144-14.222,1.662-19.434,6.424s-8.553,11.293-10.555,18.065-2.759,13.838-3.5,20.861c-.319,3.033-.44,6.591,1.88,8.569,2.074,1.769,5.161,1.436,7.834.907a114.409,114.409,0,0,0,26.238-8.587c7.219-3.377,14.629-8.166,17.038-15.763C369.171,356.185,367.921,350.1,365.295,344.978Z" transform="translate(-314.267 -330.941)" fill="#172f35"/>
              </g>
              <g id="Group_101187" data-name="Group 101187" transform="translate(5.527 16.123)">
                <path id="Path_58112" data-name="Path 58112" d="M284.781,264.732a2.558,2.558,0,0,0-3.917-.6c-3.7,3.29-5.81,8.322-6.385,13.315-.718,6.222.6,12.486,1.911,18.6l6.906-1.113a40.77,40.77,0,0,1,.064-12.733,17.86,17.86,0,0,1,5.026-9.54,2.014,2.014,0,0,0,.116-2.829A31.863,31.863,0,0,1,284.781,264.732Z" transform="translate(-274.276 -263.475)" fill="#fff"/>
              </g>
              <g id="Group_101188" data-name="Group 101188" transform="translate(70.206 11.675)">
                <path id="Path_58113" data-name="Path 58113" d="M375.18,257.493a14.079,14.079,0,0,1-.515,2.842,2,2,0,0,0,.554,2.042,26.205,26.205,0,0,1,7.179,11.129,1.357,1.357,0,0,0,1.548-1,3.924,3.924,0,0,0-.094-2.021,33.569,33.569,0,0,0-7-13.588A.963.963,0,0,0,375.18,257.493Z" transform="translate(-374.583 -256.577)" fill="#fff"/>
              </g>
              <g id="Group_101189" data-name="Group 101189" transform="translate(1.535 7.753)">
                <path id="Path_58114" data-name="Path 58114" d="M274.417,327.423c.6-9.286-1.341-18.521-2.967-27.684s-2.944-18.6-1.12-27.726,7.348-18,15.962-21.52c-9.073,2.784-14.633,10.755-16.89,19.973s-1.315,19.545.579,28.844S273.944,317.945,274.417,327.423Z" transform="translate(-268.085 -250.494)" fill="#ffc088"/>
              </g>
            </g>
            <g id="Group_101192" data-name="Group 101192" transform="translate(29.241)">
              <path id="Path_58115" data-name="Path 58115" d="M339.388,239.933q-.068-3.869-.112-7.736a75.994,75.994,0,0,0-28.224,2.316q.82,3.038,1.678,6.095C315.107,252.9,327,300.061,327,300.061l11.855-2.837-15.468-54.3A82.442,82.442,0,0,0,339.388,239.933Z" transform="translate(-311.052 -231.773)" fill="#172f35"/>
              <g id="Group_101191" data-name="Group 101191" transform="translate(4.595 7.461)">
                <path id="Path_58116" data-name="Path 58116" d="M341.919,243.345a71.593,71.593,0,0,1-23.741,2.881c5.333,18.715,11.995,37.7,22.9,54.492,3.2-.738,6.369-1.713,9.52-2.7a105.733,105.733,0,0,1-7.072-27.8A248.273,248.273,0,0,1,341.919,243.345Z" transform="translate(-318.178 -243.345)" fill="#ffc088"/>
              </g>
            </g>
          </g>
          <g id="Group_101215" data-name="Group 101215">
            <g id="Group_101196" data-name="Group 101196" transform="translate(94.002 30.369)">
              <g id="Group_101194" data-name="Group 101194">
                <path id="Path_58117" data-name="Path 58117" d="M387.766,217.918c0,1.871-1.11,3.388-2.479,3.388s-2.479-1.517-2.479-3.388,1.11-3.388,2.479-3.388S387.766,216.047,387.766,217.918Z" transform="translate(-382.807 -214.53)" fill="#172f35"/>
              </g>
              <g id="Group_101195" data-name="Group 101195" transform="translate(0.431 1.663)">
                <path id="Path_58118" data-name="Path 58118" d="M395.471,220.392a1.893,1.893,0,0,1-1.4,1.025,5.577,5.577,0,0,1-1.793-.023l-8.806-1.062.213-3.223,8.253.471a5.6,5.6,0,0,1,2.575.565A1.923,1.923,0,0,1,395.471,220.392Z" transform="translate(-383.476 -217.109)" fill="#172f35"/>
              </g>
            </g>
            <g id="Group_101199" data-name="Group 101199" transform="translate(24.311 20.838)">
              <g id="Group_101197" data-name="Group 101197">
                <path id="Path_58119" data-name="Path 58119" d="M346.177,209.553a11.607,11.607,0,0,1-9.731-3.6c-1.675-1.618-2.963-3.682-4.948-4.9-3.258-2-7.406-1.211-11.208-.816-5.616.583-11.507.193-16.662,2.5-3.8,1.7-6.829,4.71-10.065,7.331a59.155,59.155,0,0,1-18.837,10.219,15.1,15.1,0,0,1,2.859,4.891,71.241,71.241,0,0,1,16.824-1.029c8.738.331,17.508,1.4,26.2.424a27.066,27.066,0,0,0,10.306-2.926c2.533-1.422,4.679-3.443,7.148-4.974s4.7-2.283,7.478-1.439A4.157,4.157,0,0,0,346.177,209.553Z" transform="translate(-274.726 -199.749)" fill="#ffb408"/>
              </g>
              <g id="Group_101198" data-name="Group 101198" transform="translate(16.261 8.885)">
                <path id="Path_58120" data-name="Path 58120" d="M303.7,218.511a2.53,2.53,0,0,0,.965-.4c1.414-1,1.084-3.316,2.267-4.584l-6.985,5.332C301.076,218.292,302.454,218.76,303.7,218.511Z" transform="translate(-299.944 -213.529)" fill="#ffc088"/>
              </g>
            </g>
            <g id="Group_101200" data-name="Group 101200" transform="translate(13.931 39.515)">
              <path id="Path_58121" data-name="Path 58121" d="M277.425,240.041a1.578,1.578,0,0,0,.879-1.844,5.078,5.078,0,0,1-.141-2.021,16.8,16.8,0,0,0,.391-2.339,5.666,5.666,0,0,0-1.31-3.131,4.887,4.887,0,0,0-1.824-1.725,5.422,5.422,0,0,0-3.731.2c-.792.236-1.7.588-1.92,1.387a2.11,2.11,0,0,0,.086,1.13,7.517,7.517,0,0,0,2.53,3.755c.747.591,1.679,1.142,1.867,2.076a2.207,2.207,0,0,1-.685,1.9,7.55,7.55,0,0,1-1.728,1.183,43.635,43.635,0,0,0-12.577,11.433c-.091.117-.179.241-.26.369-.011.015-.025.027-.035.043a1.606,1.606,0,0,0-.336.994,1.491,1.491,0,0,0,1.225,1.182c.438.1,1,.037,1.186-.372a1.444,1.444,0,0,0-.041-.914,3.843,3.843,0,0,1-.09-.909A47.821,47.821,0,0,1,277.425,240.041Z" transform="translate(-258.628 -228.715)" fill="#fff"/>
            </g>
            <g id="Group_101203" data-name="Group 101203" transform="translate(49.451 23.11)">
              <g id="Group_101201" data-name="Group 101201">
                <path id="Path_58122" data-name="Path 58122" d="M346.473,218.32c1.434-2.286,1.275-5.2.807-7.861-.339-1.927-.87-3.965-2.336-5.26a8.75,8.75,0,0,0-5.043-1.707,45.328,45.328,0,0,0-16.941,1.539c-3.407.979-6.989,2.627-8.493,5.837a10.151,10.151,0,0,0,2.171,10.9c2.754,2.512,6.522,2.338,10.249,2.424a42.391,42.391,0,0,0,13.236-1.883C344.512,220.94,345.138,220.448,346.473,218.32Z" transform="translate(-313.715 -203.273)" fill="#fff"/>
              </g>
              <g id="Group_101202" data-name="Group 101202" transform="translate(27.736 1.128)">
                <path id="Path_58123" data-name="Path 58123" d="M356.73,205.122a13.527,13.527,0,0,1,3.385,6.8,40.337,40.337,0,0,1,.609,7.669,15.221,15.221,0,0,0,.008-11.57,5.914,5.914,0,0,0-1.476-2.261A2.712,2.712,0,0,0,356.73,205.122Z" transform="translate(-356.73 -205.022)" fill="#172f35"/>
              </g>
            </g>
            <g id="Group_101204" data-name="Group 101204" transform="translate(93.661 30.327)">
              <path id="Path_58124" data-name="Path 58124" d="M384.809,222.957a4.847,4.847,0,0,0,1.4.047c3.652.181,6.658-.121,9.631,1.283-.189.091-.291.727-.174.9a.764.764,0,0,0,1.213-.353,1.244,1.244,0,0,0-.56-1.319,5.543,5.543,0,0,0-1.719-.771c-2.94-.546-5.605-.807-8.546-1.353-.774-.244-1.019-1.247-.875-2.046a14.683,14.683,0,0,0,.553-2.364,2.653,2.653,0,0,0-2.486-2.515.446.446,0,0,0-.446.6,6.112,6.112,0,0,1-.44,5.175.582.582,0,0,0,.218.818C383.365,221.464,383.9,222.633,384.809,222.957Z" transform="translate(-382.278 -214.465)" fill="#fff"/>
            </g>
            <g id="Group_101207" data-name="Group 101207" transform="translate(86.361)">
              <g id="Group_101205" data-name="Group 101205">
                <circle id="Ellipse_6" data-name="Ellipse 6" cx="7.438" cy="7.438" r="7.438" transform="translate(0 5.653) rotate(-22.334)" fill="#fff"/>
              </g>
              <g id="Group_101206" data-name="Group 101206" transform="translate(6.98 10.781)">
                <path id="Path_58125" data-name="Path 58125" d="M384,205.981a.661.661,0,0,1-.652-.556l-1.476-9.181a6.917,6.917,0,0,1,.274-3.289l2.815-8.351a.661.661,0,1,1,1.253.422l-2.815,8.352a5.587,5.587,0,0,0-.221,2.657l1.475,9.181a.661.661,0,0,1-.548.758A.648.648,0,0,1,384,205.981Z" transform="translate(-381.782 -184.152)" fill="#fff"/>
              </g>
            </g>
            <g id="Group_101210" data-name="Group 101210" transform="translate(2.677 10.864)">
              <g id="Group_101208" data-name="Group 101208">
                <circle id="Ellipse_7" data-name="Ellipse 7" cx="9.422" cy="9.422" r="9.422" fill="#fff"/>
              </g>
              <g id="Group_101209" data-name="Group 101209" transform="translate(10.138 9.091)">
                <path id="Path_58126" data-name="Path 58126" d="M273.094,220.639a.661.661,0,0,1-.642-.507l-2.878-12.071a4.553,4.553,0,0,0-2.245-2.936l-10.087-5.5a.661.661,0,1,1,.633-1.161l10.088,5.5a5.876,5.876,0,0,1,2.9,3.791l2.878,12.071a.661.661,0,0,1-.489.8A.672.672,0,0,1,273.094,220.639Z" transform="translate(-256.896 -198.379)" fill="#fff"/>
              </g>
            </g>
            <g id="Group_101214" data-name="Group 101214" transform="translate(0 40.219)">
              <g id="Group_101211" data-name="Group 101211" transform="translate(2.51 1.725)">
                <path id="Path_58127" data-name="Path 58127" d="M240.915,240.182l1.522,3.731a167.818,167.818,0,0,1,22.028-7.542,13.7,13.7,0,0,0-1.985-3.891Z" transform="translate(-240.915 -232.481)" fill="#172f35"/>
              </g>
              <g id="Group_101212" data-name="Group 101212" transform="translate(21.682)">
                <path id="Path_58128" data-name="Path 58128" d="M270.652,231.908a2.054,2.054,0,0,1,1.413-1.971,2.98,2.98,0,0,1,2.493.373,5.578,5.578,0,0,1,1.748,1.9,6.675,6.675,0,0,1,1.028,3.036,3.511,3.511,0,0,1-.438,1.645,1.99,1.99,0,0,1-3.126.6A10.3,10.3,0,0,1,270.652,231.908Z" transform="translate(-270.648 -229.807)" fill="#172f35"/>
              </g>
              <g id="Group_101213" data-name="Group 101213" transform="translate(0 9)">
                <path id="Path_58129" data-name="Path 58129" d="M242.4,245.777c.88,1.677.5,3.613-.858,4.323s-3.165-.074-4.045-1.751-.5-3.613.858-4.324S241.519,244.1,242.4,245.777Z" transform="translate(-237.023 -243.764)" fill="#172f35"/>
              </g>
            </g>
          </g>
          <g id="Group_101227" data-name="Group 101227" transform="translate(65.676 107.187)">
            <g id="Group_101218" data-name="Group 101218" transform="translate(3.026 9.618)">
              <g id="Group_101216" data-name="Group 101216">
                <path id="Path_58130" data-name="Path 58130" d="M364.057,348.652l-7.435.974c-9.423,1.235-14.988,18.064-12.431,37.59s12.269,34.355,21.692,33.121l7.435-.974c9.422-1.234,14.988-18.063,12.431-37.59S373.48,347.419,364.057,348.652Z" transform="translate(-343.57 -348.581)" fill="#172f35"/>
              </g>
              <g id="Group_101217" data-name="Group 101217" transform="translate(2.507 12.033)">
                <ellipse id="Ellipse_8" data-name="Ellipse 8" cx="7.322" cy="24.247" rx="7.322" ry="24.247" transform="translate(0 1.902) rotate(-7.461)" fill="#a6bebd"/>
              </g>
            </g>
            <g id="Group_101221" data-name="Group 101221">
              <g id="Group_101219" data-name="Group 101219">
                <path id="Path_58131" data-name="Path 58131" d="M377.089,344.724a27.87,27.87,0,0,0-10.9-9.344c-9.1-4.088-17.649-.659-22.008,8.047-3.044,6.079-5.654,14.18-5.261,21.03.438,7.658.607,16.287,2.282,23.772,14.527-1.7,35.372-5.135,48.113-9.889C387.5,366.872,383.878,354.142,377.089,344.724Z" transform="translate(-338.877 -333.665)" fill="#ffb408"/>
              </g>
              <g id="Group_101220" data-name="Group 101220" transform="translate(5.995 3.412)">
                <path id="Path_58132" data-name="Path 58132" d="M353.756,339.836a11.831,11.831,0,0,0-5.581,6.686,4.709,4.709,0,0,1,4.983-1.189,7.73,7.73,0,0,1,4.027,3.477,22.993,22.993,0,0,1,2.039,5.024q4.016,12.688,8.031,25.374a6.673,6.673,0,0,0,1.56,3.007c1.571,1.454,4.041,1.074,6.129.6a3.046,3.046,0,0,1-2.878-1.237,8.873,8.873,0,0,1-1.352-2.989q-5.264-17.054-9.4-34.429c-.438-1.84-1.026-3.9-2.7-4.789C357.122,338.575,355.251,339.032,353.756,339.836Z" transform="translate(-348.175 -338.957)" fill="#ffc088"/>
              </g>
            </g>
            <g id="Group_101226" data-name="Group 101226" transform="translate(3.557 17.237)">
              <g id="Group_101222" data-name="Group 101222">
                <path id="Path_58133" data-name="Path 58133" d="M344.51,367.645c-.8,9.919,2.655,19.609,5,29.279a17.221,17.221,0,0,0,2.007,5.563,5.4,5.4,0,0,0,4.974,2.646c2.152-.306,3.7-2.395,4.087-4.534a15.75,15.75,0,0,0-.629-6.443l-7.906-32.872c-1.458-1.486-4.143-.973-5.55.562S344.677,365.57,344.51,367.645Z" transform="translate(-344.393 -360.397)" fill="#172f35"/>
              </g>
              <g id="Group_101223" data-name="Group 101223" transform="translate(4.52 25.452)">
                <path id="Path_58134" data-name="Path 58134" d="M356.858,407.8c0,4.382-1.221,7.934-2.727,7.934s-2.728-3.552-2.728-7.934,1.221-7.934,2.728-7.934S356.858,403.422,356.858,407.8Z" transform="translate(-351.404 -399.87)" fill="#a6bebd"/>
              </g>
              <g id="Group_101224" data-name="Group 101224" transform="translate(3.465 1.677)">
                <path id="Path_58135" data-name="Path 58135" d="M358.643,403.474a1.438,1.438,0,0,0,1.634.324,2.546,2.546,0,0,0,1.222-1.25c.849-1.68.486-3.693.064-5.527-2.371-10.29-6.027-20.278-7.842-30.681a5.7,5.7,0,0,0-.825-2.473,1.876,1.876,0,0,0-2.3-.693,1.841,1.841,0,0,0-.821,1.526,5.573,5.573,0,0,0,.3,1.774,151.793,151.793,0,0,1,4.006,18.635,4.842,4.842,0,0,1,2.781,2.853,20.957,20.957,0,0,1,1.638,13.42A2.475,2.475,0,0,0,358.643,403.474Z" transform="translate(-349.767 -362.998)" fill="#a6bebd"/>
              </g>
              <g id="Group_101225" data-name="Group 101225" transform="translate(3.825 24.614)">
                <path id="Path_58136" data-name="Path 58136" d="M352.285,398.57a10.412,10.412,0,0,0-1.947,3.812A4.167,4.167,0,0,1,352.285,398.57Z" transform="translate(-350.326 -398.57)" fill="#a6bebd"/>
              </g>
            </g>
          </g>
        </g>
        <g id="Group_101229" data-name="Group 101229" transform="translate(76.087 102.626)">
          <path id="Path_58137" data-name="Path 58137" d="M262.143,239.648c-.461-1.359-1.256-4.858-2.535-5.51a12.95,12.95,0,0,0-5.207-1,20.271,20.271,0,0,0-5.592.065,6.06,6.06,0,0,0-3.416,1.983,4.6,4.6,0,0,0-1.488,3.526c.057,1.508,2.543,4.135,4.051,4.192a1.044,1.044,0,0,0-.407,1.287,3.038,3.038,0,0,0,.912,1.146l2.442,2.211a4.485,4.485,0,0,0,2.027,1.257,3.989,3.989,0,0,0,2.864-.887c1.528-1.024,3.243-1.744,4.365-3.2C261.5,242.973,262.851,241.733,262.143,239.648Z" transform="translate(-243.902 -232.97)" fill="#ffc088"/>
        </g>
      </g>
    </g>
  </g>
</svg>
