<svg xmlns="http://www.w3.org/2000/svg" width="9.171" height="11.672" viewBox="0 0 9.171 11.672"><g transform="translate(0)"><g transform="translate(0 0)"><g transform="translate(0 0)"><path d="M55.04,1.529H53.984V1.057c0-.153-.167-.222-.32-.222h-.82A1.243,1.243,0,0,0,51.608,0a1.264,1.264,0,0,0-1.237.834h-.806c-.153,0-.306.069-.306.222v.472H48.2a1.181,1.181,0,0,0-1.167,1.125v7.962A1.118,1.118,0,0,0,48.2,11.673H55.04a1.118,1.118,0,0,0,1.167-1.056V2.655A1.181,1.181,0,0,0,55.04,1.529Zm-5.224-.139h.764a.306.306,0,0,0,.264-.25.806.806,0,0,1,.764-.625.792.792,0,0,1,.75.625.306.306,0,0,0,.278.25h.792V2.5H49.816Zm5.836,9.226a.564.564,0,0,1-.611.5H48.2a.564.564,0,0,1-.611-.5V2.655a.625.625,0,0,1,.611-.57H49.26v.709a.292.292,0,0,0,.306.264h4.1a.306.306,0,0,0,.32-.264V2.085H55.04a.625.625,0,0,1,.611.57v7.962Z" transform="translate(-47.037 0)" fill="#ffb408"/><path d="M101.5,230.4a.278.278,0,0,0-.389-.014l-.889.848-.375-.389a.278.278,0,0,0-.389-.014.292.292,0,0,0,0,.4l.57.584a.25.25,0,0,0,.195.083.278.278,0,0,0,.195-.083l1.084-1.028a.264.264,0,0,0,.016-.373Z" transform="translate(-97.989 -224.186)" fill="#ffb408"/><path d="M202.022,256.034h-3.2a.278.278,0,1,0,0,.556h3.2a.278.278,0,1,0,0-.556Z" transform="translate(-194.519 -249.225)" fill="#ffb408"/><path d="M101.5,146.806a.278.278,0,0,0-.389-.014l-.889.848-.375-.389a.278.278,0,0,0-.389-.014.292.292,0,0,0,0,.4l.57.584a.25.25,0,0,0,.195.083.278.278,0,0,0,.195-.083L101.5,147.2a.264.264,0,0,0,.016-.373Z" transform="translate(-97.989 -142.817)" fill="#ffb408"/><path d="M202.022,172.442h-3.2a.278.278,0,1,0,0,.556h3.2a.278.278,0,1,0,0-.556Z" transform="translate(-194.519 -167.856)" fill="#ffb408"/><path d="M101.5,313.989a.278.278,0,0,0-.389-.014l-.889.848-.375-.389a.278.278,0,0,0-.389-.014.292.292,0,0,0,0,.4l.57.584a.25.25,0,0,0,.195.083.278.278,0,0,0,.195-.083l1.084-1.028a.264.264,0,0,0,.016-.373Z" transform="translate(-97.989 -305.554)" fill="#ffb408"/><path d="M202.022,339.626h-3.2a.278.278,0,1,0,0,.556h3.2a.278.278,0,1,0,0-.556Z" transform="translate(-194.519 -330.594)" fill="#ffb408"/></g></g></g></svg>