<svg xmlns="http://www.w3.org/2000/svg" xmlns:xlink="http://www.w3.org/1999/xlink" width="17" height="17" viewBox="0 0 17 17"><defs><clipPath id="a"><rect width="17" height="17" transform="translate(0)" fill="#fff"/></clipPath></defs><g clip-path="url(#a)"><g transform="translate(1.416)"><path d="M14.542,5.967V4.958a4.958,4.958,0,1,0-9.917,0V5.967A3.542,3.542,0,0,0,2.5,9.208v4.25A3.546,3.546,0,0,0,6.042,17h7.083a3.546,3.546,0,0,0,3.542-3.542V9.208A3.542,3.542,0,0,0,14.542,5.967Zm-8.5-1.009a3.542,3.542,0,1,1,7.083,0v.708H6.042Zm9.208,8.5a2.125,2.125,0,0,1-2.125,2.125H6.042a2.125,2.125,0,0,1-2.125-2.125V9.208A2.125,2.125,0,0,1,6.042,7.083h7.083A2.125,2.125,0,0,1,15.25,9.208Z" transform="translate(-2.5)" fill="#fff"/><path d="M14.458,17.5a.708.708,0,0,0-.708.708v1.417a.708.708,0,1,0,1.417,0V18.208A.708.708,0,0,0,14.458,17.5Z" transform="translate(-7.375 -7.583)" fill="#fff"/></g></g></svg>