<svg xmlns="http://www.w3.org/2000/svg" width="12.331" height="12.331" viewBox="0 0 12.331 12.331"><g transform="translate(0)"><path d="M10.524,1.806a6.165,6.165,0,0,0-8.719,8.719,6.165,6.165,0,0,0,8.719-8.719ZM3.09,10.654a3.122,3.122,0,0,1,6.149,0,5.431,5.431,0,0,1-6.149,0ZM4.2,5.391a1.96,1.96,0,1,1,1.96,1.96A1.963,1.963,0,0,1,4.2,5.391Zm5.661,4.762A3.85,3.85,0,0,0,7.627,7.64a2.683,2.683,0,1,0-2.924,0,3.85,3.85,0,0,0-2.238,2.513,5.443,5.443,0,1,1,7.4,0Zm0,0" transform="translate(0.001)" fill="#ffb408"/></g></svg>