<svg xmlns="http://www.w3.org/2000/svg" width="12.994" height="12.994" viewBox="0 0 12.994 12.994"><g transform="translate(0)"><path d="M7.039,12.994H5.956a.813.813,0,0,1-.812-.812V11.174a4.833,4.833,0,0,1-1-.413l-.713.713a.832.832,0,0,1-1.149,0l-.766-.766a.812.812,0,0,1,0-1.148l.713-.714a4.8,4.8,0,0,1-.413-1H.812A.813.813,0,0,1,0,7.038V5.956a.812.812,0,0,1,.812-.812H1.82a4.834,4.834,0,0,1,.413-1L1.52,3.434a.813.813,0,0,1,0-1.148l.766-.766a.832.832,0,0,1,1.149,0l.713.713a4.83,4.83,0,0,1,1-.413V.812A.813.813,0,0,1,5.956,0H7.039a.813.813,0,0,1,.812.812V1.82a4.836,4.836,0,0,1,1,.413L9.56,1.52a.832.832,0,0,1,1.149,0l.766.766a.812.812,0,0,1,0,1.148l-.713.713a4.809,4.809,0,0,1,.413,1h1.008a.813.813,0,0,1,.812.812V7.038a.812.812,0,0,1-.812.812H11.174a4.832,4.832,0,0,1-.413,1l.713.713a.813.813,0,0,1,0,1.148l-.766.766a.832.832,0,0,1-1.149,0l-.713-.713a4.834,4.834,0,0,1-1,.413v1.008a.814.814,0,0,1-.812.812ZM4.1,10.151a.271.271,0,0,1,.141.04,4.3,4.3,0,0,0,1.234.512.271.271,0,0,1,.207.263v1.216a.271.271,0,0,0,.271.271H7.039a.271.271,0,0,0,.271-.271V10.966a.271.271,0,0,1,.207-.263,4.3,4.3,0,0,0,1.233-.512.271.271,0,0,1,.333.04l.86.861a.279.279,0,0,0,.383,0l.766-.766a.271.271,0,0,0,0-.383l-.861-.861a.271.271,0,0,1-.04-.333A4.294,4.294,0,0,0,10.7,7.516a.271.271,0,0,1,.263-.207h1.216a.27.27,0,0,0,.271-.27V5.956a.271.271,0,0,0-.271-.271H10.966a.27.27,0,0,1-.263-.207,4.291,4.291,0,0,0-.511-1.233.271.271,0,0,1,.04-.333l.861-.861a.271.271,0,0,0,0-.383L10.326,1.9a.278.278,0,0,0-.383,0l-.861.861a.269.269,0,0,1-.333.04,4.3,4.3,0,0,0-1.233-.511.27.27,0,0,1-.207-.263V.812A.271.271,0,0,0,7.039.541H5.956a.271.271,0,0,0-.271.271V2.028a.271.271,0,0,1-.207.263A4.3,4.3,0,0,0,4.245,2.8a.27.27,0,0,1-.332-.04L3.052,1.9a.278.278,0,0,0-.383,0L1.9,2.668a.271.271,0,0,0,0,.383l.861.861a.271.271,0,0,1,.04.333,4.293,4.293,0,0,0-.511,1.233.271.271,0,0,1-.263.207H.812a.27.27,0,0,0-.271.27V7.038a.271.271,0,0,0,.271.271H2.028a.27.27,0,0,1,.263.207A4.3,4.3,0,0,0,2.8,8.75a.271.271,0,0,1-.04.333L1.9,9.943a.271.271,0,0,0,0,.383l.766.766a.278.278,0,0,0,.383,0l.86-.861A.268.268,0,0,1,4.1,10.151Z" transform="translate(0)" fill="#ffb408"/><path d="M16.707,19.414a2.707,2.707,0,1,1,2.707-2.707A2.71,2.71,0,0,1,16.707,19.414Zm0-4.873a2.166,2.166,0,1,0,2.166,2.166A2.168,2.168,0,0,0,16.707,14.541Z" transform="translate(-10.21 -10.21)" fill="#ffb408"/></g></svg>