<svg xmlns="http://www.w3.org/2000/svg" width="17.1" height="17.3" viewBox="0 0 17.1 17.3"><g transform="translate(-54.162 -51.919)"><path d="M151.2,139.462c-.1-.059-.224-.126-.367-.212-.08-.048-.18-.114-.287-.184a2.844,2.844,0,0,0-1.313-.612.642.642,0,0,0-.232.041,2.24,2.24,0,0,0-.807.744,3.958,3.958,0,0,1-.3.346,5.829,5.829,0,0,1-2.833-2.833,3.934,3.934,0,0,1,.348-.3,2.244,2.244,0,0,0,.742-.8c.153-.4-.127-.868-.571-1.545-.07-.106-.136-.207-.184-.286-.086-.144-.153-.263-.212-.367-.242-.43-.4-.714-1-.714a2.357,2.357,0,0,0-1.315.734,2.5,2.5,0,0,0-.842,1.728,7.6,7.6,0,0,0,2.427,4.987l.008.006a7.593,7.593,0,0,0,4.988,2.423h0a2.49,2.49,0,0,0,1.728-.838,2.348,2.348,0,0,0,.735-1.311C151.911,139.864,151.627,139.7,151.2,139.462Zm-1.749,2.333a7.72,7.72,0,0,1-6.6-6.6,2.2,2.2,0,0,1,1.337-1.636.651.651,0,0,1,.1.006,2.637,2.637,0,0,1,.174.287c.059.1.132.234.225.389.056.093.126.2.2.313a4.6,4.6,0,0,1,.47.828,3.2,3.2,0,0,1-.466.421c-.357.285-.665.531-.665.879,0,.84,1.083,1.987,1.414,2.319s1.479,1.414,2.321,1.414c.346,0,.591-.308.874-.664a3.173,3.173,0,0,1,.423-.468,4.583,4.583,0,0,1,.828.471c.113.074.22.144.314.2.154.093.284.166.388.224a2.641,2.641,0,0,1,.287.174.656.656,0,0,1,.006.1A2.206,2.206,0,0,1,149.448,141.794Z" transform="translate(-84.079 -77.33)" fill="#fff" stroke="#fff" stroke-width="0.3"/><path d="M71.111,60.542a8.628,8.628,0,0,0-8.582-8.473,8.122,8.122,0,0,0-8.14,7.5,8.54,8.54,0,0,0,1.319,5.26l-1.364,3.687a.414.414,0,0,0,.388.557.419.419,0,0,0,.161-.038l3.552-1.512a8.484,8.484,0,0,0,4.5,1.279h0a8.111,8.111,0,0,0,8.166-8.257Zm-2.964,5.312a7.3,7.3,0,0,1-5.2,2.138,7.675,7.675,0,0,1-4.232-1.273.414.414,0,0,0-.389-.035L55.452,67.9l1.1-2.985a.414.414,0,0,0-.045-.375,7.513,7.513,0,0,1,.816-9.507,7.3,7.3,0,0,1,5.2-2.138,7.8,7.8,0,0,1,7.755,7.657A7.3,7.3,0,0,1,68.147,65.854Z" fill="#fff" stroke="#fff" stroke-width="0.3"/></g></svg>